<?xml version="1.0" encoding="UTF-8" standalone="no"?>
<!-- Created with Inkscape (http://www.inkscape.org/) -->

<svg
   width="168.29469mm"
   height="103.31008mm"
   viewBox="0 0 168.29469 103.31008"
   version="1.1"
   id="svg1"
   xmlns:inkscape="http://www.inkscape.org/namespaces/inkscape"
   xmlns:sodipodi="http://sodipodi.sourceforge.net/DTD/sodipodi-0.dtd"
   xmlns="http://www.w3.org/2000/svg"
   xmlns:svg="http://www.w3.org/2000/svg">
  <sodipodi:namedview
     id="namedview1"
     pagecolor="#ffffff"
     bordercolor="#000000"
     borderopacity="0.25"
     inkscape:showpageshadow="2"
     inkscape:pageopacity="0.0"
     inkscape:pagecheckerboard="0"
     inkscape:deskcolor="#d1d1d1"
     inkscape:document-units="mm"
     inkscape:export-bgcolor="#ffffff43">
    <inkscape:page
       x="-3.086026e-14"
       y="0"
       width="168.29471"
       height="103.31008"
       id="page2"
       margin="0"
       bleed="0" />
  </sodipodi:namedview>
  <defs
     id="defs1" />
  <g
     inkscape:label="Ebene 1"
     inkscape:groupmode="layer"
     id="layer1"
     transform="translate(-62.963239,-14.831622)">
    <g
       id="g2"
       transform="matrix(1.0052681,0,0,1.0635561,-2.6959372,-6.8832893)"
       inkscape:export-filename="g2.svg"
       inkscape:export-xdpi="83.900002"
       inkscape:export-ydpi="83.900002">
      <g
         id="text1"
         style="opacity:0.6"
         transform="matrix(0.54525701,0,0,0.45505429,25.342086,-125.21862)">
        <path
           style="font-size:192px;font-family:'Bowlby One SC';-inkscape-font-specification:'Bowlby One SC';baseline-shift:baseline;white-space:pre;display:inline;overflow:visible;vector-effect:none;fill:#f4eed7;enable-background:accumulate;stop-color:#000000;stop-opacity:1"
           d="m 125.82617,320.94476 q 12.84375,0 23.0625,1.6875 10.3125,1.6875 19.6875,6 9.46875,4.3125 15.75,11.25 6.28125,6.9375 9.9375,18 3.75,11.0625 3.75,25.6875 0,10.6875 -2.53125,19.96875 -2.53125,9.1875 -6.9375,15.84375 -4.40625,6.65625 -10.125,11.90625 -5.625,5.15625 -12.28125,8.4375 -6.65625,3.28125 -13.3125,5.0625 -6.65625,1.78125 -13.3125,2.15625 H 75.201172 v -124.5 q 0.28125,0 1.03125,0.0937 0.75,0.0937 1.03125,0.0937 4.03125,0 12.1875,-0.84375 8.25,-0.84375 12.374998,-0.84375 z m 1.125,96.75 q 4.78125,0 8.4375,-1.5 3.65625,-1.59375 5.8125,-4.5 2.25,-2.90625 3.65625,-6.09375 1.5,-3.1875 2.15625,-7.5 0.65625,-4.3125 0.84375,-7.5 0.28125,-3.28125 0.28125,-7.40625 v -6.75 q -0.0937,-0.65625 -0.5625,-6.375 -0.46875,-5.71875 -2.0625,-9.75 -1.5,-2.90625 -3.375,-4.96875 -1.78125,-2.15625 -3.5625,-3.28125 -1.78125,-1.21875 -4.21875,-1.78125 -2.34375,-0.65625 -4.3125,-0.84375 -1.96875,-0.1875 -4.78125,-0.1875 v 2.0625 h -2.8125 v 66.375 z m 81.9375,29.8125 v -123.1875 q 0.0937,-0.75 1.5,-1.3125 1.40625,-0.65625 1.6875,-0.9375 h 50.4375 v 122.0625 q -0.46875,1.96875 -0.9375,2.71875 -0.375,0.65625 -1.3125,0.65625 z m 70.875,-117.5625 q 0,-5.625 0.46875,-6.5625 0.84375,-1.3125 2.71875,-1.3125 h 2.25 q 1.5,0 2.0625,0.1875 h 4.875 q 9.46875,0 28.59375,-0.46875 19.21875,-0.46875 28.78125,-0.46875 h 24.9375 q 2.4375,0.28125 2.4375,2.4375 v 31.3125 q -0.0937,0.5625 -0.375,1.03125 -0.1875,0.375 -0.375,0.5625 -0.0937,0.0937 -0.84375,0.65625 -0.75,0.46875 -1.03125,0.75 h -43.5 v 11.625 h 4.125 q 5.4375,0 16.59375,-0.375 11.15625,-0.375 17.15625,-0.375 2.625,0 3.5625,1.03125 0.9375,1.03125 0.9375,2.90625 0,0.46875 -0.1875,1.59375 -0.1875,1.125 -0.1875,1.59375 v 3.5625 q 0,0.375 0.0937,1.59375 0.0937,1.125 0.0937,1.96875 v 2.625 q 0,2.0625 0.1875,4.125 0.1875,2.0625 0.1875,3.5625 v 2.4375 q -0.46875,1.125 -0.75,1.5 -0.28125,0.375 -0.9375,0.375 v -0.1875 q -3.46875,0 -12,0.46875 -8.4375,0.46875 -13.5,0.46875 h -15 v 12 q 0.75,0 2.25,0.0937 1.5,0.0937 2.25,0.0937 4.21875,0 12.46875,-0.28125 8.25,-0.28125 11.90625,-0.28125 h 12 q 4.875,0 6.1875,1.125 0.46875,0.5625 0.75,1.125 v 30 q 0,1.96875 -0.75,3 -0.75,1.03125 -2.8125,1.125 h -92.8125 l -2.8125,-2.4375 z"
           id="path3" />
        <path
           style="font-size:192px;font-family:'Bowlby One SC';-inkscape-font-specification:'Bowlby One SC';baseline-shift:baseline;white-space:pre;display:inline;overflow:visible;vector-effect:none;enable-background:accumulate;stop-color:#000000;stop-opacity:1"
           d="m 101.82617,320.04102 c -2.811592,0 -6.951635,0.28555 -12.466795,0.8496 h -0.002 c -5.422347,0.56094 -9.469278,0.8379 -12.09375,0.8379 -0.08718,0 -0.433706,-0.0252 -0.919922,-0.0859 -0.513784,-0.0642 -0.854754,-0.10156 -1.142578,-0.10156 H 74.296828 V 447.8477 h 65.242182 0.0254 c 4.50082,-0.25357 9.00125,-0.9827 13.4961,-2.18555 4.49867,-1.20387 8.99204,-2.91336 13.47851,-5.125 4.51531,-2.22586 8.68171,-5.08909 12.49219,-8.58203 v -0.002 c 3.86746,-3.55045 7.29112,-7.57592 10.26758,-12.07226 2.99915,-4.53063 5.34637,-9.90101 7.05469,-16.10156 v -0.002 -0.002 c 1.71066,-6.27242 2.56445,-13.00876 2.56445,-20.20508 0,-9.82395 -1.25971,-18.48277 -3.79688,-25.9707 l -0.002,-0.008 c -2.46798,-7.46438 -5.83523,-13.58061 -10.12305,-18.31641 -4.27602,-4.72277 -9.63386,-8.54353 -16.04297,-11.46289 l -0.002,-0.002 c -6.32292,-2.9083 -12.96388,-4.93269 -19.91601,-6.07032 -6.87253,-1.13491 -14.60692,-1.69921 -23.20899,-1.69921 z m 247.6875,0.375 c -6.38976,0 -15.98658,0.15616 -28.80273,0.46875 -12.74635,0.31241 -22.27468,0.46875 -28.57227,0.46875 h -4.875 l 0.28516,0.0469 c -0.60355,-0.20118 -1.31002,-0.23437 -2.34766,-0.23437 h -2.25 c -1.46079,0 -2.75141,0.59746 -3.47851,1.72851 l -0.0274,0.041 -0.0215,0.043 c -0.31786,0.63571 -0.36262,1.31887 -0.44336,2.44921 -0.0807,1.13035 -0.1211,2.63004 -0.1211,4.51758 v 114.59961 l 3.37891,2.92774 h 93.16992 0.0215 c 1.52014,-0.0691 2.77792,-0.50056 3.50195,-1.4961 0.66084,-0.90866 0.92188,-2.10403 0.92188,-3.53125 v -30.21484 l -0.0937,-0.18945 c -0.22342,-0.44683 -0.51481,-0.87832 -0.86524,-1.29883 l -0.0488,-0.0586 -0.0566,-0.0508 c -1.29461,-1.10967 -3.4559,-1.34179 -6.77539,-1.34179 h -12 c -2.46066,0 -6.43296,0.0936 -11.9375,0.28125 -5.49476,0.18732 -9.64507,0.28125 -12.4375,0.28125 -0.46238,0 -1.20271,-0.0299 -2.19336,-0.0918 -0.6145,-0.0384 -0.96874,-0.0433 -1.40429,-0.0586 v -10.23046 h 14.09765 c 3.40239,0 7.91497,-0.15579 13.54883,-0.46875 5.25097,-0.28852 8.70576,-0.41187 11.04687,-0.4336 v 0.15235 h 0.9043 c 0.60958,0 1.2703,-0.21652 1.66016,-0.73633 0.30313,-0.40418 0.53786,-0.91704 0.86133,-1.69336 l 0.0684,-0.16797 v -2.61719 c 0,-1.03764 -0.0627,-2.24986 -0.18946,-3.64453 -0.12254,-1.34796 -0.18554,-2.69534 -0.18554,-4.04297 v -2.625 c 0,-0.59424 -0.0321,-1.27315 -0.0957,-2.03906 v -0.006 c -0.0614,-0.80036 -0.0898,-1.34349 -0.0898,-1.51758 v -3.5625 c 0,-0.19204 0.0522,-0.71538 0.17383,-1.44531 0.12834,-0.77007 0.20117,-1.30923 0.20117,-1.74219 0,-1.40056 -0.36551,-2.62452 -1.17383,-3.51367 -0.90731,-0.99804 -2.36217,-1.32812 -4.23047,-1.32812 -4.01882,0 -9.74456,0.12481 -17.1875,0.375 -7.43257,0.24983 -12.95827,0.375 -16.5625,0.375 h -3.2207 v -9.81836 h 42.9707 l 0.26367,-0.26368 c 0.081,-0.081 0.39692,-0.32668 0.8711,-0.62304 l 0.0332,-0.0195 0.0312,-0.0234 c 0.25242,-0.18932 0.44972,-0.34002 0.59766,-0.45508 0.14793,-0.11506 0.20404,-0.1474 0.34179,-0.28516 0.22134,-0.22133 0.37535,-0.47463 0.52149,-0.76171 0.23907,-0.40516 0.40212,-0.85195 0.48047,-1.32227 l 0.0137,-0.0742 v -31.38672 c 0,-0.88895 -0.28039,-1.73156 -0.875,-2.32617 -0.59462,-0.59461 -1.42021,-0.90095 -2.36328,-1.00977 l -0.0508,-0.006 z m -137.8125,0.75 -0.26367,0.26562 c 0.0482,-0.0482 -0.11183,0.083 -0.36328,0.22266 -0.25145,0.13969 -0.61156,0.32198 -1.06836,0.53515 l 0.0469,-0.0215 c -0.52982,0.21192 -0.97356,0.45075 -1.33789,0.76953 -0.36432,0.31878 -0.65868,0.75748 -0.72265,1.26953 l -0.008,0.0566 V 448.4101 h 52.2793 c 0.8301,0 1.67192,-0.38987 2.08594,-1.09961 0.42451,-0.68541 0.72288,-1.62437 1.04297,-2.96875 l 0.0254,-0.10352 v -123.0722 z m -109.875,0.68164 h 24 c 8.52294,0 16.16355,0.56069 22.91602,1.67578 6.79702,1.11224 13.28064,3.08855 19.45703,5.92968 l 0.002,0.002 c 6.21478,2.83049 11.35666,6.50659 15.45508,11.0332 4.08568,4.51255 7.34321,10.39567 9.75,17.67774 v 0.004 l 0.002,0.002 c 2.46114,7.26037 3.70118,15.72566 3.70117,25.39844 0,7.05368 -0.8337,13.62789 -2.49804,19.73047 -1.66664,6.04865 -3.94476,11.23811 -6.82031,15.58203 -2.89855,4.37866 -6.22489,8.2907 -9.98243,11.74024 -3.68952,3.38206 -7.71061,6.14382 -12.07031,8.29297 -4.38853,2.16336 -8.77016,3.82887 -13.14648,5 -4.37429,1.17058 -8.74301,1.87766 -13.11133,2.125 H 76.105469 V 323.43359 c 0.0082,0.001 0.0073,9.2e-4 0.01563,0.002 0.513784,0.0642 0.854754,0.0996 1.142578,0.0996 2.750092,0 6.827942,-0.28377 12.279297,-0.84766 5.484839,-0.56095 9.5948,-0.83984 12.283206,-0.83984 z m 247.6875,0.375 h 24.84961 c 0.66683,0.0805 1.06209,0.27107 1.27734,0.48632 0.21789,0.21789 0.34376,0.50029 0.34375,1.04883 v 31.20117 c -0.0467,0.25263 -0.12449,0.47511 -0.24609,0.67774 l -0.0176,0.0293 -0.0156,0.0312 c -0.0981,0.19613 -0.18655,0.30959 -0.20508,0.32812 0.0753,-0.0753 -0.0405,0.033 -0.17383,0.13672 -0.13331,0.10369 -0.32661,0.24984 -0.57422,0.43555 l 0.0645,-0.0449 c -0.36711,0.22945 -0.58925,0.41741 -0.83204,0.61329 h -44.125 v 13.43164 h 5.0293 c 3.64577,0 9.18258,-0.12484 16.625,-0.375 7.43207,-0.24982 13.14382,-0.375 17.125,-0.375 1.6317,0 2.55184,0.35936 2.89453,0.73632 0.44169,0.48586 0.70117,1.1994 0.70117,2.29883 0,0.19205 -0.0522,0.71539 -0.17382,1.44531 -0.12835,0.77008 -0.20117,1.30924 -0.20118,1.74219 v 3.5625 c 0,0.32525 0.0346,0.84255 0.0977,1.66211 v 0.004 0.002 c 0.0609,0.73138 0.0899,1.36547 0.0898,1.89453 v 2.625 c 0,1.40238 0.0639,2.80499 0.19141,4.20703 0.12321,1.35534 0.1836,2.51811 0.18359,3.48047 v 2.23438 c -0.22042,0.50582 -0.39116,0.83723 -0.48242,0.98633 h -0.30078 c -2.35319,0 -6.35463,0.15783 -12.04883,0.4707 h -0.002 c -5.61501,0.31194 -10.1021,0.4668 -13.44922,0.4668 h -15.9043 v 13.80664 h 0.9043 c 0.46238,0 1.20271,0.0299 2.19336,0.0918 1.00935,0.063 1.76902,0.0957 2.30664,0.0957 2.83258,0 6.99476,-0.0936 12.5,-0.28125 5.49546,-0.18735 9.46067,-0.28125 11.875,-0.28125 h 12 c 3.14176,0 5.07054,0.50404 5.55664,0.89257 0.19726,0.24632 0.34919,0.4853 0.47656,0.7168 v 29.73828 c 0,1.19779 -0.23701,2.00241 -0.57617,2.46875 -0.27483,0.3779 -0.89155,0.69413 -2.11133,0.75196 H 282.9121 l -2.24609,-1.94727 0.002,-113.77344 c 0,-1.86245 0.0378,-3.33151 0.11328,-4.38867 0.0736,-1.03038 0.24976,-1.69906 0.25391,-1.72461 0.39366,-0.58202 0.90683,-0.85937 1.91601,-0.85937 h 2.25 c 0.96236,0 1.63089,0.0938 1.77735,0.14257 l 0.13867,0.0449 h 5.02148 c 6.32741,0 15.86159,-0.15616 28.61524,-0.46875 12.80885,-0.31241 22.39952,-0.46875 28.75976,-0.46875 z m -137.18164,0.75 h 49.27734 V 444 c -0.29462,1.20745 -0.60897,2.06929 -0.79882,2.37305 l -0.01,0.0137 -0.01,0.0156 c -0.0891,0.15593 -0.11314,0.20118 -0.52735,0.20118 h -50.4707 v -122.1797 c -0.002,0.007 -0.0141,-0.0155 0.11328,-0.12696 0.13568,-0.11871 0.41065,-0.28809 0.81836,-0.45117 l 0.0234,-0.01 0.0234,-0.01 c 0.48071,-0.22433 0.87059,-0.41899 1.18164,-0.5918 0.1548,-0.086 0.2571,-0.18175 0.37891,-0.26171 z m -87.97265,25.38086 v 2.0625 h -2.8125 v 68.18164 h 5.40429 c 3.28198,0 6.21582,-0.51392 8.78125,-1.56641 l 0.008,-0.004 0.01,-0.004 c 2.56134,-1.11648 4.63798,-2.71987 6.17383,-4.78907 1.53756,-1.98804 2.79345,-4.07922 3.75976,-6.26953 1.0403,-2.21664 1.77607,-4.79378 2.22266,-7.72851 0.4392,-2.88616 0.72376,-5.4002 0.85156,-7.5586 v -0.01 c 0.18976,-2.21742 0.28516,-4.70574 0.28516,-7.47266 v -6.81445 l -0.01,-0.0644 c -0.0404,-0.2827 -0.24427,-2.5099 -0.55664,-6.32032 -0.3179,-3.87835 -1.01798,-7.21264 -2.12304,-10.00781 l -0.0156,-0.043 -0.0215,-0.0391 c -1.02809,-1.99192 -2.19415,-3.70983 -3.50196,-5.15039 -1.22179,-1.47504 -2.46303,-2.626 -3.74414,-3.4375 -1.28737,-0.87812 -2.79422,-1.51115 -4.50195,-1.90625 -1.59066,-0.44356 -3.06985,-0.73694 -4.4375,-0.86719 -1.35292,-0.12885 -2.97211,-0.1914 -4.86719,-0.1914 z m 1.80859,1.84179 c 1.40832,0.0193 2.76393,0.0506 3.79101,0.14844 1.24716,0.11878 2.63353,0.38864 4.1543,0.81445 l 0.0215,0.006 0.0195,0.004 c 1.53268,0.3537 2.82964,0.90585 3.91211,1.64648 l 0.0137,0.01 0.0137,0.01 c 1.08213,0.68345 2.20519,1.70882 3.34766,3.0918 l 0.0137,0.0176 0.0156,0.0156 c 1.18022,1.29825 2.25246,2.88089 3.2168,4.74219 1.01031,2.57184 1.68291,5.71787 1.98828,9.44336 0.30729,3.74852 0.47252,5.68559 0.55859,6.31641 v 6.73437 c 0,2.72947 -0.0926,5.17272 -0.27734,7.32813 v 0.0117 l -0.002,0.0137 c -0.12278,2.08716 -0.39954,4.56109 -0.83399,7.41601 -0.42708,2.80652 -1.12725,5.22306 -2.08203,7.25196 l -0.004,0.01 -0.004,0.01 c -0.90661,2.05497 -2.08702,4.02313 -3.54492,5.90625 l -0.006,0.006 -0.004,0.008 c -1.33686,1.80186 -3.13203,3.19733 -5.43945,4.20508 -2.30797,0.94558 -4.9961,1.42969 -8.08594,1.42969 h -3.5957 v -64.56836 h 2.8125 z"
           id="path4" />
      </g>
      <g
         id="text2"
         style="opacity:0.6"
         transform="scale(0.75379422,1.326622)">
        <path
           style="font-size:37.8842px;line-height:0;font-family:'Bowlby One SC';-inkscape-font-specification:'Bowlby One SC';baseline-shift:baseline;display:inline;overflow:visible;vector-effect:none;fill:#aa0000;enable-background:accumulate;stop-color:#000000;stop-opacity:1"
           d="M 87.428428,88.275351 Q 87.095462,87.720407 86.984473,87.498429 V 63.191866 h 8.17618 q 0.05549,0 0.29597,0 0.240476,-0.0185 0.369963,0 0.129487,0 0.351465,0.0185 0.240476,0.0185 0.388461,0.07399 0.147985,0.037 0.29597,0.129487 0.166484,0.07399 0.258974,0.221978 0.110989,0.147985 0.147985,0.332966 v 8.213177 q 0.610439,-1.220878 1.70183,-3.514648 1.109889,-2.29377 1.627839,-3.329666 l 0.90641,-1.942305 1.75732,-0.0555 q 0.36996,0 1.10989,0.037 0.75842,0.037 1.10989,0.037 h 1.40586 q 0.14798,0 0.42545,-0.0185 0.29597,-0.0185 0.42546,-0.0185 h 1.07289 q 0.074,0 0.25898,-0.037 2.9967,0 2.9967,0.443956 0,0.258974 -0.33297,0.702929 -0.85091,1.350365 -2.86721,4.939005 -2.0163,3.570142 -3.25568,5.38296 l 7.23278,12.46775 q 0,0.0185 0,0.129487 0,0.110989 0,0.147985 0,0.037 -0.0185,0.129487 0,0.07399 -0.0185,0.129487 -0.0185,0.037 -0.0555,0.110989 -0.0185,0.0555 -0.074,0.110989 -0.037,0.037 -0.0925,0.09249 -1.73883,-0.110989 -5.17949,-0.110989 -0.46245,0 -1.42435,0.0185 -0.96191,0.0185 -1.42436,0.0185 h -2.51575 v -0.517948 q -0.29597,-0.49945 -1.27637,-1.960803 -0.980401,-1.461354 -1.424356,-2.29377 l -2.071793,-3.958603 v 8.213176 q -0.258974,0.739926 -2.034795,0.739926 z m 26.452352,-0.037 V 63.931792 q 0.0185,-0.147985 0.29597,-0.258974 0.27747,-0.129487 0.33296,-0.184981 h 9.95201 v 24.084584 q -0.0925,0.388461 -0.18499,0.536447 -0.074,0.129487 -0.25897,0.129487 z m 13.9846,-23.196674 q 0,-1.109889 0.0925,-1.29487 0.16648,-0.258974 0.53644,-0.258974 h 0.44396 q 0.29597,0 0.40696,0.037 h 0.9619 q 1.86831,0 5.64193,-0.09249 3.79212,-0.09249 5.67894,-0.09249 h 4.9205 q 0.48095,0.0555 0.48095,0.480952 v 6.178381 q -0.0185,0.110989 -0.074,0.203479 -0.037,0.07399 -0.074,0.110989 -0.0185,0.0185 -0.16648,0.129487 -0.14799,0.09249 -0.20348,0.147985 h -8.58314 v 2.29377 h 0.81391 q 1.0729,0 3.27418,-0.07399 2.20128,-0.07399 3.38516,-0.07399 0.51794,0 0.70293,0.20348 0.18498,0.203479 0.18498,0.573442 0,0.09249 -0.037,0.314469 -0.037,0.221977 -0.037,0.314468 v 0.70293 q 0,0.07399 0.0185,0.314468 0.0185,0.221978 0.0185,0.388461 v 0.517948 q 0,0.406959 0.037,0.813919 0.037,0.406959 0.037,0.702929 v 0.480952 q -0.0925,0.221978 -0.14798,0.29597 -0.0555,0.07399 -0.18498,0.07399 v -0.037 q -0.68443,0 -2.36777,0.09249 -1.66483,0.09249 -2.66373,0.09249 h -2.9597 v 2.367763 q 0.14798,0 0.44395,0.0185 0.29597,0.0185 0.44396,0.0185 0.83242,0 2.46025,-0.0555 1.62784,-0.05549 2.34927,-0.05549 h 2.36776 q 0.9619,0 1.22088,0.221978 0.0925,0.110989 0.14798,0.221977 v 5.919407 q 0,0.388461 -0.14798,0.59194 -0.14799,0.20348 -0.55495,0.221978 h -18.31316 l -0.55494,-0.480952 z m 20.16297,22.345759 v -1.146885 q 0,-0.147985 0.0185,-0.536446 0.0185,-0.388461 0.0185,-0.610439 v -0.961904 q 0,-2.404758 0.18498,-2.58974 2.51575,-2.904209 7.54724,-9.17508 l 1.57235,-1.831316 q -0.49945,-0.037 -2.70073,0 -2.20128,0.0185 -2.79322,0.0185 h -0.48096 q -0.20347,0 -0.61043,0.0185 -0.40696,0.0185 -0.61044,0.0185 h -1.18388 q -0.44396,-0.221977 -0.44396,-0.628937 v -6.400358 h 20.49595 q 0.33296,0 0.44395,0.0185 0.11099,0 0.25897,0.110989 0.14799,0.09249 0.18499,0.314469 0.037,0.221977 0.037,0.628937 0,0.221977 -0.037,0.536446 -0.037,0.314468 -0.037,0.388461 l 0.074,0.221978 q 0,0.684431 -0.0185,1.331866 0,0.647435 -0.0185,1.091391 -0.0185,0.443955 -0.037,0.776922 -0.0185,0.332966 -0.037,0.517948 0,0.184981 0,0.203479 -0.14798,0.388461 -0.14798,0.443956 v 0.29597 q -1.36886,1.572342 -3.9586,4.458053 -2.57125,2.885711 -3.58864,4.051094 l -0.81392,1.035896 -0.88791,0.961904 h 9.24907 q 0.59194,0 0.59194,1.479851 v 4.809518 q 0,0.554944 -0.24048,0.758424 -0.24047,0.203479 -0.79542,0.203479 H 148.5833 q -0.11099,-0.110988 -0.33297,-0.388461 -0.20348,-0.29597 -0.22198,-0.425457 z m 24.89851,0.887911 q -0.33297,-0.554944 -0.44396,-0.776922 V 63.191866 h 8.17618 q 0.0555,0 0.29597,0 0.24048,-0.0185 0.36996,0 0.12949,0 0.35147,0.0185 0.24048,0.0185 0.38846,0.07399 0.14799,0.037 0.29597,0.129487 0.16648,0.07399 0.25897,0.221978 0.11099,0.147985 0.14799,0.332966 v 8.213177 q 0.61044,-1.220878 1.70183,-3.514648 1.10989,-2.29377 1.62784,-3.329666 l 0.90641,-1.942305 1.75732,-0.0555 q 0.36996,0 1.10989,0.037 0.75842,0.037 1.10989,0.037 h 1.40586 q 0.14798,0 0.42545,-0.0185 0.29597,-0.0185 0.42546,-0.0185 h 1.07289 q 0.074,0 0.25898,-0.037 2.9967,0 2.9967,0.443956 0,0.258974 -0.33297,0.702929 -0.85092,1.350365 -2.86721,4.939005 -2.0163,3.570142 -3.25568,5.38296 l 7.23278,12.46775 q 0,0.0185 0,0.129487 0,0.110989 0,0.147985 0,0.037 -0.0185,0.129487 0,0.07399 -0.0185,0.129487 -0.0185,0.037 -0.0555,0.110989 -0.0185,0.0555 -0.074,0.110989 -0.037,0.037 -0.0925,0.09249 -1.73882,-0.110989 -5.17948,-0.110989 -0.46245,0 -1.42435,0.0185 -0.96191,0.0185 -1.42436,0.0185 h -2.51575 v -0.517948 q -0.29597,-0.49945 -1.27637,-1.960803 -0.9804,-1.461354 -1.42436,-2.29377 l -2.07179,-3.958603 v 8.213176 q -0.25897,0.739926 -2.0348,0.739926 z m 51.31385,-24.787514 q 0.22197,0.07399 0.33296,0.647435 0.12949,0.554944 0.14799,1.405859 0.0185,0.850914 0,1.627836 -0.0185,0.776923 -0.0555,1.590841 -0.0185,0.813918 -0.0185,1.017398 -0.037,0.739926 -0.037,2.071792 v 1.960804 q 0,1.29487 0.037,3.551643 0.037,2.256774 0.037,3.329666 v 6.733325 q -0.074,0.628937 -1.03589,0.628937 H 213.2898 q -0.33296,-0.07399 -0.85091,-1.553844 -0.35147,-0.980402 -1.18388,-3.218677 -0.81392,-2.238276 -1.40586,-3.921607 -0.59194,-1.701829 -1.07289,-3.29267 v -0.110989 0.110989 q -0.0555,1.220878 -0.11099,3.644135 -0.0555,2.404759 -0.11099,3.607138 v 3.773622 q 0,0.554944 -0.12949,0.776922 -0.12948,0.203479 -0.68443,0.332966 h -7.62123 l -0.81392,-0.813918 q 0.0925,-3.070692 0.14798,-9.619035 0.0555,-6.548344 0.14799,-9.693028 v -3.9956 q 0.18498,-0.665933 0.44395,-0.665933 v 0.07399 q 1.25788,0 3.94011,-0.07399 2.70073,-0.07399 4.05109,-0.07399 h 3.10769 q 0.0185,0 0.0555,0.0185 0.33297,0.129487 0.36997,0.29597 l 0.0185,0.129487 q 0.66594,1.79432 1.35037,3.718127 0.68443,1.923807 1.62784,4.661533 0.9434,2.719227 1.31336,3.755123 v -2.737725 q 0.36997,-6.511347 0.36997,-9.249073 0,-0.29597 0.40696,-0.369963 0.40696,-0.07399 1.25787,-0.07399 z m 3.99559,1.553844 q 0,-1.109889 0.0925,-1.29487 0.16649,-0.258974 0.53645,-0.258974 h 0.44395 q 0.29597,0 0.40696,0.037 h 0.96191 q 1.86831,0 5.64193,-0.09249 3.79212,-0.09249 5.67893,-0.09249 h 4.92051 q 0.48095,0.0555 0.48095,0.480952 v 6.178381 q -0.0185,0.110989 -0.074,0.203479 -0.037,0.07399 -0.074,0.110989 -0.0185,0.0185 -0.16648,0.129487 -0.14798,0.09249 -0.20348,0.147985 h -8.58314 v 2.29377 h 0.81392 q 1.07289,0 3.27417,-0.07399 2.20128,-0.07399 3.38516,-0.07399 0.51795,0 0.70293,0.20348 0.18498,0.203479 0.18498,0.573442 0,0.09249 -0.037,0.314469 -0.037,0.221977 -0.037,0.314468 v 0.70293 q 0,0.07399 0.0185,0.314468 0.0185,0.221978 0.0185,0.388461 v 0.517948 q 0,0.406959 0.037,0.813919 0.037,0.406959 0.037,0.702929 v 0.480952 q -0.0925,0.221978 -0.14799,0.29597 -0.0555,0.07399 -0.18498,0.07399 v -0.037 q -0.68443,0 -2.36776,0.09249 -1.66483,0.09249 -2.66373,0.09249 h -2.95971 v 2.367763 q 0.14799,0 0.44396,0.0185 0.29597,0.0185 0.44396,0.0185 0.83241,0 2.46025,-0.0555 1.62784,-0.05549 2.34926,-0.05549 h 2.36777 q 0.9619,0 1.22087,0.221978 0.0925,0.110989 0.14799,0.221977 v 5.919407 q 0,0.388461 -0.14799,0.59194 -0.14798,0.20348 -0.55494,0.221978 h -18.31316 l -0.55495,-0.480952 z m 21.34687,23.196674 V 63.931792 q 0.0185,-0.147985 0.29597,-0.258974 0.27747,-0.129487 0.33297,-0.184981 h 9.952 v 24.084584 q -0.0925,0.388461 -0.18498,0.536447 -0.074,0.129487 -0.25898,0.129487 z m 14.35456,-0.037 -0.38846,-12.319764 q 0,-1.276372 0.037,-2.885711 0.037,-1.609338 0.0925,-2.904209 0.0555,-1.29487 0.0925,-2.941205 0.0555,-1.646335 0.0555,-2.996699 0,-0.369963 0.24048,-0.462454 0.25897,-0.110989 0.62893,-0.07399 0.38847,0.037 0.86942,-0.0555 h 13.24467 q 1.12839,0 2.25677,0.295971 1.12839,0.277472 2.20128,0.924907 1.09139,0.628937 1.90531,1.553844 0.83242,0.906409 1.33187,2.275272 0.51795,1.368863 0.51795,3.015197 0,2.182782 -0.92491,3.884611 -0.92491,1.683331 -2.77472,3.181681 -2.27528,1.183881 -5.47545,1.368863 h -0.59194 q -0.73993,0.147985 -1.47986,0.147985 h -1.47985 q -0.11099,0 -0.18498,0.037 0,4.846514 0.14799,7.325265 -0.0925,0.369963 -0.40696,0.49945 -0.29597,0.129487 -1.0359,0.129487 z m 9.24907,-14.132582 v 0.332966 q 0.0185,0.0185 0.24048,0.129487 0.24048,0.09249 0.24048,0.129487 v 0.037 q -0.037,0 -0.037,-0.07399 0.037,0.037 0.22198,0.037 1.64633,0 2.77472,-0.739926 1.14688,-0.739925 1.14688,-2.29377 0,-0.702929 -0.24047,-1.202379 -0.24048,-0.49945 -0.59194,-0.758424 -0.33297,-0.277472 -0.92491,-0.406959 -0.57344,-0.147985 -1.05439,-0.184982 -0.48096,-0.037 -1.22088,-0.037 -0.0185,0.0185 -0.14799,0.129487 -0.12948,0.110989 -0.18498,0.166483 v 1.923808 q -0.22198,1.775821 -0.22198,2.811718 z m 15.64943,-9.027095 q 0,-1.109889 0.0925,-1.29487 0.16648,-0.258974 0.53645,-0.258974 h 0.44395 q 0.29597,0 0.40696,0.037 h 0.96191 q 1.86831,0 5.64193,-0.09249 3.79212,-0.09249 5.67893,-0.09249 h 4.92051 q 0.48095,0.0555 0.48095,0.480952 v 6.178381 q -0.0185,0.110989 -0.074,0.203479 -0.037,0.07399 -0.074,0.110989 -0.0185,0.0185 -0.16648,0.129487 -0.14798,0.09249 -0.20348,0.147985 h -8.58314 v 2.29377 h 0.81392 q 1.07289,0 3.27417,-0.07399 2.20128,-0.07399 3.38516,-0.07399 0.51795,0 0.70293,0.20348 0.18498,0.203479 0.18498,0.573442 0,0.09249 -0.037,0.314469 -0.037,0.221977 -0.037,0.314468 v 0.70293 q 0,0.07399 0.0185,0.314468 0.0185,0.221978 0.0185,0.388461 v 0.517948 q 0,0.406959 0.037,0.813919 0.037,0.406959 0.037,0.702929 v 0.480952 q -0.0925,0.221978 -0.14799,0.29597 -0.0555,0.07399 -0.18498,0.07399 v -0.037 q -0.68443,0 -2.36776,0.09249 -1.66483,0.09249 -2.66373,0.09249 h -2.95971 v 2.367763 q 0.14799,0 0.44396,0.0185 0.29597,0.0185 0.44396,0.0185 0.83241,0 2.46025,-0.0555 1.62784,-0.05549 2.34926,-0.05549 h 2.36777 q 0.9619,0 1.22087,0.221978 0.0925,0.110989 0.14799,0.221977 v 5.919407 q 0,0.388461 -0.14799,0.59194 -0.14798,0.20348 -0.55494,0.221978 h -18.31316 l -0.55495,-0.480952 z"
           id="path5" />
        <path
           style="font-size:37.8842px;line-height:0;font-family:'Bowlby One SC';-inkscape-font-specification:'Bowlby One SC';baseline-shift:baseline;display:inline;overflow:visible;vector-effect:none;fill:#ffffff;enable-background:accumulate;stop-color:#000000;stop-opacity:1"
           d="m 86.648437,62.855469 v 24.722656 l 0.03516,0.07031 c 0.084,0.167996 0.233361,0.426045 0.457031,0.798829 l 0.09766,0.164062 h 7.996094 c 0.615245,0 1.113653,-0.06033 1.511719,-0.205078 0.398065,-0.144751 0.714014,-0.400252 0.839843,-0.759766 l 0.01953,-0.05469 V 80.6875 l 1.439453,2.75 v 0.002 c 0.305867,0.573501 0.784438,1.34301 1.441413,2.322266 0.62824,0.936442 1.02299,1.543946 1.2207,1.873047 v 0.753906 h 2.85156 c 0.31278,0 0.78738,-0.0052 1.42969,-0.01758 0.64023,-0.01231 1.11414,-0.01953 1.41797,-0.01953 2.29016,0 4.01303,0.03823 5.15819,0.111329 l 0.15235,0.0098 0.10547,-0.107422 c 0.037,-0.037 0.0691,-0.06907 0.0937,-0.09375 0.0634,-0.06336 0.12073,-0.141507 0.15429,-0.242187 l -0.0176,0.04492 c 0.0247,-0.04933 0.0423,-0.08665 0.0547,-0.111328 l 0.0117,-0.02148 0.008,-0.02148 c 0.0265,-0.07944 0.0352,-0.159032 0.0352,-0.236328 l -0.006,0.06641 c 0.014,-0.0701 0.0234,-0.114714 0.0234,-0.195313 V 87.40625 87.185547 L 106.00195,74.8125 c 0.82428,-1.219492 1.85781,-2.920116 3.15821,-5.222656 1.34313,-2.390523 2.29984,-4.035877 2.85937,-4.923828 l -0.0156,0.02148 c 0.24077,-0.321027 0.40039,-0.587823 0.40039,-0.904297 0,-0.13138 -0.0651,-0.257582 -0.14063,-0.335937 -0.0756,-0.07836 -0.15837,-0.125075 -0.24609,-0.164063 -0.17545,-0.07798 -0.38463,-0.12469 -0.65039,-0.164062 -0.53154,-0.07875 -1.28969,-0.115235 -2.29688,-0.115235 h -0.0332 l -0.0312,0.0078 c -0.11488,0.02298 -0.19996,0.0293 -0.19336,0.0293 h -1.07227 c -0.1023,0 -0.24691,0.007 -0.44726,0.01953 h -0.002 c -0.18103,0.01207 -0.31768,0.01758 -0.40235,0.01758 h -1.40625 c -0.22254,0 -0.59065,-0.01257 -1.09375,-0.03711 -0.49607,-0.02481 -0.86717,-0.03711 -1.125,-0.03711 h -0.006 l -1.96875,0.0625 -0.99414,2.128906 c -0.346832,0.693782 -0.886527,1.799999 -1.624998,3.326172 h -0.002 v 0.002 c -0.454635,0.955503 -0.733561,1.518176 -1.0625,2.19336 v -6.78125 l -0.0078,-0.0332 c -0.03279,-0.163949 -0.101357,-0.318314 -0.199219,-0.453125 -0.09476,-0.147322 -0.235303,-0.26344 -0.394531,-0.335938 -0.107554,-0.06341 -0.21909,-0.115109 -0.335937,-0.146484 -0.138745,-0.05001 -0.289056,-0.07831 -0.462891,-0.0918 h -0.002 c -0.152275,-0.01266 -0.275172,-0.01953 -0.376953,-0.01953 l 0.04883,0.0039 c -0.130624,-0.01866 -0.269919,-0.0153 -0.443359,-0.002 l 0.02539,-0.002 h -0.296875 z m 85.498043,0 v 24.722656 l 0.0371,0.07031 c 0.084,0.167997 0.23141,0.426045 0.45508,0.798829 l 0.0977,0.164062 h 7.99609 c 0.61525,0 1.11365,-0.06033 1.51172,-0.205078 0.39807,-0.144751 0.71402,-0.40025 0.83984,-0.759766 l 0.0195,-0.05469 V 80.6875 l 1.43945,2.75 v 0.002 c 0.30587,0.5735 0.78444,1.343011 1.4414,2.322266 0.62825,0.936442 1.02299,1.543946 1.22071,1.873047 v 0.753906 h 2.85156 c 0.31278,0 0.78738,-0.0052 1.42969,-0.01758 0.64023,-0.01231 1.11414,-0.01953 1.41797,-0.01953 2.29016,0 4.01303,0.03823 5.1582,0.111329 l 0.15234,0.0098 0.10743,-0.107422 c 0.037,-0.037 0.0671,-0.06907 0.0918,-0.09375 0.0634,-0.06336 0.12074,-0.141507 0.1543,-0.242187 l -0.0176,0.04492 c 0.0247,-0.04933 0.0443,-0.08665 0.0566,-0.111328 l 0.01,-0.02148 0.008,-0.02148 c 0.0265,-0.07944 0.0352,-0.159032 0.0352,-0.236328 l -0.006,0.06641 c 0.014,-0.0701 0.0254,-0.114714 0.0254,-0.195313 V 87.40625 87.185547 L 191.5,74.810547 c 0.82418,-1.219452 1.85816,-2.918794 3.1582,-5.220703 1.34313,-2.390522 2.29984,-4.035878 2.85938,-4.923828 l -0.0156,0.02148 c 0.24078,-0.321027 0.40039,-0.587823 0.40039,-0.904297 0,-0.13138 -0.0651,-0.257582 -0.14062,-0.335937 -0.0756,-0.07836 -0.15837,-0.125075 -0.2461,-0.164063 -0.17544,-0.07798 -0.38267,-0.12469 -0.64843,-0.164062 -0.53154,-0.07875 -1.28969,-0.115235 -2.29688,-0.115235 h -0.0332 l -0.0332,0.0078 c -0.11488,0.02298 -0.19996,0.0293 -0.19336,0.0293 h -1.07227 c -0.10231,0 -0.24691,0.007 -0.44726,0.01953 h -0.002 c -0.18103,0.01207 -0.31767,0.01758 -0.40234,0.01758 h -1.40625 c -0.22214,0 -0.59008,-0.01265 -1.0918,-0.03711 h -0.002 c -0.49479,-0.02472 -0.86762,-0.03711 -1.125,-0.03711 h -0.006 l -1.96875,0.0625 -0.99414,2.128906 c -0.34684,0.693782 -0.88653,1.799999 -1.625,3.326172 l -0.002,0.002 c -0.45464,0.955503 -0.73357,1.518176 -1.0625,2.19336 v -6.78125 l -0.006,-0.0332 c -0.0328,-0.163955 -0.10331,-0.318311 -0.20118,-0.453125 -0.0942,-0.146516 -0.23247,-0.261393 -0.39062,-0.333985 -0.10924,-0.06482 -0.22294,-0.116711 -0.3418,-0.148437 -0.13783,-0.04921 -0.28656,-0.07842 -0.45898,-0.0918 h -0.002 c -0.15228,-0.01266 -0.27712,-0.01953 -0.3789,-0.01953 l 0.0488,0.0039 c -0.13063,-0.01866 -0.26992,-0.0153 -0.44336,-0.002 l 0.0254,-0.002 h -0.29688 z m -30.51757,0.148437 c -1.26337,0 -3.15807,0.03206 -5.6875,0.09375 -2.51439,0.06163 -4.39477,0.0918 -5.63477,0.0918 h -0.96094 l 0.10547,0.01758 c -0.15889,-0.05297 -0.30237,-0.05469 -0.51367,-0.05469 h -0.44336 c -0.32494,0 -0.64623,0.144343 -0.81836,0.412109 l -0.01,0.01563 -0.008,0.01758 c -0.0909,0.181729 -0.0871,0.31161 -0.10351,0.541016 -0.0164,0.229406 -0.0254,0.527719 -0.0254,0.902344 v 22.685546 l 0.76562,0.66211 h 18.44531 0.008 c 0.32522,-0.01478 0.63062,-0.109297 0.8125,-0.359375 0.11292,-0.15527 0.12539,-0.361669 0.15039,-0.5625 0.037,0.200612 0.12581,0.336587 0.26367,0.537109 l 0.006,0.0098 0.008,0.0098 c 0.1514,0.189244 0.26365,0.322249 0.35742,0.416016 l 0.0977,0.09766 h 20.82031 c 0.41098,0 0.75618,-0.06532 1.01367,-0.283203 0.27516,-0.232825 0.35743,-0.595234 0.35743,-1.013672 v -4.810547 c 0,-0.515656 -0.0446,-0.916104 -0.17188,-1.234375 -0.0636,-0.159135 -0.15091,-0.301536 -0.28125,-0.410156 -0.13034,-0.108619 -0.30408,-0.169922 -0.47266,-0.169922 h -8.48437 l 0.37891,-0.410156 0.81054,-1.03125 0.008,-0.0098 0.004,-0.0039 c 0.6776,-0.776028 1.86606,-2.118091 3.57422,-4.035156 1.7271,-1.924482 3.04631,-3.410345 3.96094,-4.460938 l 0.082,-0.0957 v -0.388672 c 0.004,-0.01325 0.0114,-0.03419 0.0215,-0.06445 0.022,-0.06603 0.0571,-0.165965 0.10547,-0.292968 l 0.0215,-0.05664 V 69.505859 69.5 c 0.0123,-0.129039 0.0254,-0.289252 0.0371,-0.5 0.0124,-0.22404 0.0247,-0.484118 0.0371,-0.78125 0.0126,-0.302751 0.0195,-0.670649 0.0195,-1.105469 l -0.002,0.0098 c 0.0124,-0.434998 0.0195,-0.882486 0.0195,-1.341797 v -0.05469 l -0.0703,-0.208984 c 0.002,-0.02647 0.01,-0.125398 0.0312,-0.306641 0.0257,-0.218746 0.0391,-0.409541 0.0391,-0.576171 0,-0.281477 -0.0109,-0.502802 -0.041,-0.683594 -0.0346,-0.207447 -0.14728,-0.412881 -0.33008,-0.533203 -0.12452,-0.09153 -0.2616,-0.166736 -0.43555,-0.169922 -0.11923,-0.01629 -0.24551,-0.02148 -0.45312,-0.02148 h -20.83203 v 6.736329 c 0,0.393339 0.25956,0.743064 0.6289,0.927734 l 0.0703,0.03516 h 1.26367 c 0.14582,0 0.35311,-0.0051 0.62695,-0.01758 0.26877,-0.01222 0.46828,-0.01758 0.59375,-0.01758 h 0.48047 c 0.39812,0 1.3291,-0.0072 2.79687,-0.01953 h 0.002 0.002 c 1.07721,-0.01811 1.51032,-0.0079 1.96289,0 l -1.09961,1.28125 -0.004,0.0039 c -3.35307,4.17901 -5.86767,7.236539 -7.53907,9.166016 l 0.0176,-0.01758 c -0.15936,0.159367 -0.14666,0.261355 -0.17383,0.40625 -0.0272,0.144896 -0.0466,0.323701 -0.0625,0.546875 -0.004,0.05585 -0.002,0.173021 -0.006,0.234375 v -1.251953 l -0.0351,-0.07031 c -0.0503,-0.100694 -0.11369,-0.196203 -0.18946,-0.28711 l -0.0195,-0.02148 -0.0215,-0.01758 c -0.32853,-0.281588 -0.77042,-0.302734 -1.4375,-0.302734 h -2.36914 c -0.48956,0 -1.27246,0.01764 -2.35938,0.05469 -1.08327,0.03693 -1.90173,0.05664 -2.44922,0.05664 -0.0847,0 -0.22999,-0.0074 -0.42382,-0.01953 -0.0557,-0.0035 -0.0806,-0.0014 -0.12891,-0.0039 v -1.710937 h 2.625 c 0.67629,0 1.56804,-0.03188 2.68164,-0.09375 0.95963,-0.05273 1.55075,-0.07065 2.01367,-0.07813 v 0.02344 h 0.33594 c 0.15024,0 0.34096,-0.05749 0.45313,-0.207031 0.0799,-0.106578 0.12371,-0.211387 0.18945,-0.369141 l 0.0254,-0.0625 v -0.546875 c 0,-0.211297 -0.0137,-0.455763 -0.0391,-0.734375 -0.0238,-0.261261 -0.0352,-0.522067 -0.0352,-0.783203 v -0.517578 c 0,-0.122841 -0.007,-0.26004 -0.0195,-0.414062 v -0.002 c -0.012,-0.155988 -0.0176,-0.265895 -0.0176,-0.287109 v -0.703125 c 0,-0.01691 0.01,-0.119237 0.0332,-0.259766 0.0259,-0.155441 0.041,-0.26273 0.041,-0.36914 0,-0.302573 -0.0801,-0.588269 -0.27148,-0.798828 -0.2282,-0.251001 -0.56194,-0.314453 -0.95118,-0.314453 -0.79624,0 -1.92694,0.02482 -3.39648,0.07422 -1.46569,0.04927 -2.55612,0.07422 -3.26367,0.07422 h -0.47852 v -1.623047 h 8.38672 l 0.0977,-0.09766 c -0.003,0.0026 0.0555,-0.04395 0.14453,-0.09961 l 0.0117,-0.0078 0.0117,-0.0098 c 0.0502,-0.03767 0.0906,-0.06615 0.12109,-0.08984 0.0305,-0.0237 0.0363,-0.0246 0.082,-0.07031 0.0604,-0.06044 0.0958,-0.120782 0.12891,-0.185547 0.056,-0.09599 0.0951,-0.201258 0.11328,-0.310547 l 0.004,-0.02734 v -6.207032 c 0,-0.205044 -0.0686,-0.420182 -0.21875,-0.570312 -0.15012,-0.15013 -0.34977,-0.220043 -0.55859,-0.244141 l -0.0195,-0.002 z m 66.4082,0 c -0.90637,0 -2.25853,0.02485 -4.06055,0.07422 -1.63404,0.04508 -2.75978,0.06452 -3.5957,0.06836 v -0.06836 h -0.33594 c -0.23015,0 -0.41213,0.1553 -0.51953,0.316406 -0.1074,0.161106 -0.18098,0.35427 -0.24805,0.595703 l -0.0117,0.04297 v 4.042969 c -0.0617,2.101485 -0.11146,5.327161 -0.14843,9.689453 -0.037,4.364426 -0.085,7.569358 -0.14649,9.611328 l -0.006,0.144531 1.01563,1.015625 h 7.79883 l 0.0371,-0.0098 c 0.40222,-0.09385 0.70503,-0.186858 0.89062,-0.478516 l 0.004,-0.0059 0.004,-0.0059 c 0.14766,-0.253121 0.17579,-0.549248 0.17578,-0.945312 v -3.773438 l -0.002,0.01563 c 0.0372,-0.806731 0.0743,-2.010772 0.11133,-3.615234 0.0175,-0.762905 0.0353,-1.135287 0.0527,-1.71875 0.16142,0.491574 0.3025,0.962701 0.47852,1.46875 l 0.002,0.002 c 0.39516,1.123718 0.86334,2.43276 1.40625,3.925781 l 0.002,0.002 c 0.55474,1.491643 0.94835,2.564098 1.18164,3.214844 0.17577,0.502011 0.33698,0.888801 0.49414,1.175781 0.15737,0.287386 0.27536,0.519743 0.59961,0.591797 l 0.0371,0.0078 h 10.39453 c 0.3572,0 0.66264,-0.05243 0.91406,-0.205078 0.25142,-0.152652 0.42055,-0.427263 0.45508,-0.720703 l 0.002,-0.01953 V 80.69138 c 0,-0.719119 -0.0124,-1.83055 -0.0371,-3.335937 -0.0246,-1.503464 -0.0371,-2.684872 -0.0371,-3.544922 v -1.960938 c 0,-0.884803 0.0129,-1.571434 0.0371,-2.054687 v -0.0098 -0.0078 c 0,-0.124513 0.007,-0.467234 0.0195,-1.001953 v -0.0078 c 0.0246,-0.542136 0.0424,-1.071902 0.0547,-1.589844 0.0125,-0.523524 0.0124,-1.072606 0,-1.644531 -0.0125,-0.577279 -0.0618,-1.05964 -0.1543,-1.460937 v -0.002 c -0.0406,-0.209391 -0.0917,-0.385009 -0.16992,-0.537109 -0.0785,-0.152603 -0.19536,-0.300147 -0.38476,-0.363281 l -0.0527,-0.01758 h -6.38086 c -0.577,0 -1.00655,0.02339 -1.31836,0.08008 -0.17439,0.03171 -0.33696,0.08935 -0.4707,0.210937 -0.13374,0.121586 -0.21094,0.312719 -0.21094,0.488282 0,1.810033 -0.12264,4.89223 -0.36914,9.230468 v 0.0098 0.775391 c -0.2197,-0.628101 -0.34516,-0.979011 -0.66211,-1.892579 v -0.002 c -0.62889,-1.825009 -1.17226,-3.380516 -1.6289,-4.664062 -0.4522,-1.271053 -0.89769,-2.496975 -1.33789,-3.683594 l -0.0156,-0.111328 -0.004,-0.01172 c -0.0659,-0.296354 -0.30782,-0.427538 -0.5664,-0.529297 -0.0398,-0.02146 -0.0733,-0.04883 -0.18555,-0.04883 z m 33.96094,0 c -1.26336,0 -3.15611,0.03206 -5.68555,0.09375 -2.51439,0.06163 -4.39476,0.0918 -5.63477,0.0918 h -0.96093 l 0.10547,0.01758 c -0.1589,-0.05297 -0.30238,-0.05469 -0.51368,-0.05469 h -0.44336 c -0.32494,0 -0.64622,0.144348 -0.81836,0.412109 l -0.01,0.01563 -0.008,0.01758 c -0.0909,0.181729 -0.0891,0.31161 -0.10547,0.541016 C 227.907,64.368087 227.9,64.6664 227.9,65.041025 v 22.685546 l 0.76563,0.66211 h 18.44531 0.008 c 0.32522,-0.01478 0.63063,-0.109288 0.8125,-0.359375 0.15841,-0.217807 0.21094,-0.487473 0.21094,-0.789063 v -6 l -0.0352,-0.07031 c -0.0503,-0.100684 -0.11369,-0.196208 -0.18945,-0.28711 l -0.0195,-0.02148 -0.0215,-0.01758 c -0.32852,-0.281597 -0.77042,-0.302734 -1.4375,-0.302734 h -2.36914 c -0.48955,0 -1.27246,0.01764 -2.35937,0.05469 -1.08328,0.03693 -1.90174,0.05664 -2.44922,0.05664 -0.0847,0 -0.22999,-0.0074 -0.42383,-0.01953 -0.0557,-0.0035 -0.0806,-0.0014 -0.12891,-0.0039 v -1.710937 h 2.62305 c 0.67629,0 1.57,-0.03188 2.68359,-0.09375 0.95963,-0.05273 1.55076,-0.07065 2.01368,-0.07813 v 0.02344 h 0.33593 c 0.15025,0 0.34096,-0.05749 0.45313,-0.207031 0.0799,-0.10659 0.12371,-0.211383 0.18945,-0.369141 l 0.0254,-0.0625 v -0.546875 c 0,-0.211297 -0.0137,-0.455763 -0.0391,-0.734375 -0.0237,-0.261261 -0.0352,-0.522067 -0.0352,-0.783203 v -0.517578 c 0,-0.122841 -0.007,-0.26004 -0.0195,-0.414062 v -0.002 c -0.012,-0.155988 -0.0176,-0.265895 -0.0176,-0.287109 v -0.703125 c 0,-0.01691 0.01,-0.119237 0.0332,-0.259766 0.0259,-0.155441 0.041,-0.26273 0.041,-0.36914 0,-0.302573 -0.0801,-0.588269 -0.27148,-0.798828 -0.22819,-0.251011 -0.56193,-0.314453 -0.95117,-0.314453 -0.79625,0 -1.92695,0.02482 -3.39649,0.07422 -1.46569,0.04927 -2.55612,0.07422 -3.26367,0.07422 h -0.47851 v -1.623047 h 8.38671 l 0.0977,-0.09766 c -0.003,0.0025 0.0555,-0.04394 0.14453,-0.09961 l 0.0117,-0.0078 0.0117,-0.0098 c 0.0502,-0.03767 0.0906,-0.06615 0.12109,-0.08984 0.0305,-0.0237 0.0363,-0.0246 0.082,-0.07031 0.0574,-0.0574 0.0912,-0.114641 0.12305,-0.175781 l 0.002,-0.0039 c 0.0578,-0.09737 0.0967,-0.205077 0.11524,-0.316407 l 0.006,-0.02734 v -6.207032 c 0,-0.205044 -0.0686,-0.420182 -0.21875,-0.570312 -0.15013,-0.15013 -0.35173,-0.220043 -0.56055,-0.244141 l -0.0176,-0.002 z m 60.60156,0 c -1.26336,0 -3.15806,0.03206 -5.6875,0.09375 -2.51439,0.06163 -4.39476,0.0918 -5.63477,0.0918 h -0.96093 l 0.10546,0.01758 c -0.15889,-0.05297 -0.30237,-0.05469 -0.51367,-0.05469 h -0.44336 c -0.32495,0 -0.64622,0.144341 -0.81836,0.412109 l -0.01,0.01563 -0.008,0.01758 c -0.0909,0.181729 -0.0871,0.31161 -0.10352,0.541016 -0.0164,0.229406 -0.0254,0.527719 -0.0254,0.902344 v 22.685546 l 0.76562,0.66211 h 18.44727 0.006 c 0.32522,-0.01478 0.63063,-0.109288 0.8125,-0.359375 0.15841,-0.217807 0.21094,-0.487473 0.21094,-0.789063 v -6 l -0.0352,-0.07031 c -0.0503,-0.100684 -0.11369,-0.196208 -0.18945,-0.28711 l -0.0176,-0.02148 -0.0215,-0.01758 c -0.32853,-0.281597 -0.77238,-0.302734 -1.43946,-0.302734 h -2.36914 c -0.48955,0 -1.27246,0.01764 -2.35937,0.05469 -1.08328,0.03693 -1.90174,0.05664 -2.44922,0.05664 -0.0847,0 -0.22999,-0.0074 -0.42383,-0.01953 -0.0557,-0.0035 -0.0806,-0.0014 -0.12891,-0.0039 v -1.710937 h 2.625 c 0.67629,0 1.56805,-0.03188 2.68164,-0.09375 0.95963,-0.05273 1.55076,-0.07065 2.01368,-0.07813 v 0.02344 h 0.33593 c 0.15025,0 0.34096,-0.05749 0.45313,-0.207031 0.0799,-0.10659 0.12371,-0.211383 0.18945,-0.369141 l 0.0254,-0.0625 v -0.546875 c 0,-0.211297 -0.0137,-0.455763 -0.0391,-0.734375 -0.0238,-0.261261 -0.0352,-0.522067 -0.0352,-0.783203 v -0.517578 c 0,-0.122841 -0.007,-0.26004 -0.0195,-0.414062 v -0.002 c -0.012,-0.155988 -0.0176,-0.265895 -0.0176,-0.287109 v -0.703125 c 0,-0.01691 0.01,-0.119237 0.0332,-0.259766 0.0259,-0.155441 0.041,-0.26273 0.041,-0.36914 0,-0.302573 -0.0801,-0.588269 -0.27148,-0.798828 -0.22819,-0.251011 -0.56193,-0.314453 -0.95117,-0.314453 -0.79625,0 -1.92695,0.02482 -3.39649,0.07422 -1.46569,0.04927 -2.55612,0.07422 -3.26367,0.07422 h -0.47852 v -1.623047 h 8.38672 l 0.0977,-0.09766 c -0.003,0.0025 0.0555,-0.04394 0.14453,-0.09961 l 0.0117,-0.0078 0.0117,-0.0098 c 0.0502,-0.03767 0.0906,-0.06615 0.12109,-0.08984 0.0305,-0.0237 0.0363,-0.0246 0.082,-0.07031 0.0604,-0.06044 0.0958,-0.120782 0.12891,-0.185547 0.056,-0.09599 0.0951,-0.201258 0.11328,-0.310547 l 0.004,-0.02734 v -6.207032 c 0,-0.205044 -0.0686,-0.420182 -0.21875,-0.570312 -0.15013,-0.15013 -0.34977,-0.220043 -0.5586,-0.244141 l -0.0195,-0.002 z m -188.22852,0.148438 -0.0996,0.09766 c 0.0343,-0.03424 0.009,-0.0071 -0.0352,0.01758 -0.0406,0.02258 -0.10614,0.05722 -0.1836,0.09375 -0.11517,0.04607 -0.21875,0.09937 -0.31054,0.179688 -0.0918,0.08032 -0.17698,0.202945 -0.19531,0.349609 l -0.002,0.01953 v 24.664063 h 10.47266 c 0.20022,0 0.43674,-0.108452 0.54687,-0.296875 0.10186,-0.166147 0.16035,-0.357062 0.22461,-0.626953 l 0.008,-0.03906 V 63.152344 Z m 135.70118,0 -0.0977,0.09766 c 0.0342,-0.03422 0.007,-0.0071 -0.0371,0.01758 -0.0406,0.02258 -0.10614,0.05722 -0.18359,0.09375 -0.11518,0.04607 -0.2168,0.09937 -0.3086,0.179688 -0.0918,0.08032 -0.17698,0.202945 -0.19531,0.349609 l -0.002,0.01953 v 24.664063 h 10.47265 c 0.20077,0 0.43714,-0.107477 0.54688,-0.296875 0.10184,-0.16614 0.15839,-0.357068 0.22265,-0.626953 l 0.01,-0.03906 V 63.152344 Z m 15.46093,0.07422 -0.0312,0.0059 c -0.29602,0.05693 -0.55375,0.07171 -0.77343,0.05078 -0.28377,-0.02813 -0.54927,-0.0017 -0.78516,0.09766 -0.14852,0.05832 -0.28029,0.177533 -0.35352,0.31836 -0.0739,0.142073 -0.0996,0.295401 -0.0996,0.455078 0,0.895645 -0.0178,1.889906 -0.0547,2.984375 v 0.002 0.002 c -0.0246,1.095764 -0.0549,2.075192 -0.0918,2.935547 -0.0371,0.866002 -0.069,1.835477 -0.0937,2.910156 -0.0247,1.074931 -0.0371,2.038421 -0.0371,2.892578 v 0.0059 l 0.40039,12.65039 h 9.20313 c 0.51118,0 0.87508,-0.03177 1.16601,-0.158203 0.30088,-0.125576 0.52274,-0.401548 0.60352,-0.724609 l 0.0117,-0.05078 -0.004,-0.05078 c -0.0939,-1.57288 -0.13677,-3.972967 -0.14063,-7.007812 h 1.32422 c 0.51566,0 1.03054,-0.05142 1.54493,-0.154297 l -0.0664,0.0078 h 0.60156 l 0.01,-0.002 c 2.17005,-0.125437 4.04367,-0.590563 5.61133,-1.40625 l 0.0293,-0.01563 0.0274,-0.02148 c 1.25971,-1.02037 2.21558,-2.111154 2.85742,-3.279297 v -0.002 c 0.64535,-1.187442 0.9668,-2.542334 0.96679,-4.044922 0,-1.131378 -0.17888,-2.177566 -0.53906,-3.130859 -0.34503,-0.945652 -0.80999,-1.743449 -1.39844,-2.384766 -0.56449,-0.640558 -1.22668,-1.179985 -1.98046,-1.615234 -5.4e-4,-3.24e-4 -0.001,3.23e-4 -0.002,0 -0.73932,-0.445944 -1.50264,-0.76933 -2.28711,-0.962891 -6.3e-4,-1.67e-4 -10e-4,1.67e-4 -0.002,0 -0.77817,-0.203945 -1.55888,-0.306641 -2.33984,-0.306641 z m -169.753903,0.296875 0.02344,0.0039 h 0.02344 c 0.07034,0 0.181615,0.0057 0.324219,0.01758 h 0.002 c 0.139981,0.01077 0.242693,0.03242 0.296875,0.05273 l 0.01758,0.0078 0.01758,0.0039 c 0.06036,0.01509 0.128093,0.04417 0.201172,0.08984 l 0.01953,0.01172 0.02148,0.0098 c 0.05619,0.02497 0.08235,0.05052 0.109375,0.09375 l 0.0078,0.01172 0.0098,0.01172 c 0.04139,0.05518 0.06417,0.113954 0.08008,0.183593 v 8.160157 l 0.636718,0.15039 c 0.408779,-0.817557 0.975027,-1.991244 1.703125,-3.521484 v 0.0039 c 0.739639,-1.528585 1.281129,-2.638433 1.624999,-3.326172 l 0.002,-0.0039 0.82227,-1.759766 1.54101,-0.04883 c 0.23545,0 0.6013,0.01258 1.0918,0.03711 0.50813,0.02479 0.88086,0.03711 1.12695,0.03711 h 1.40625 c 0.11215,0 0.25758,-0.007 0.44531,-0.01953 0.19428,-0.01214 0.33591,-0.01758 0.40625,-0.01758 h 1.07227 c 0.0863,0 0.16903,-0.01845 0.26563,-0.03711 0.98533,2.69e-4 1.72569,0.03843 2.1914,0.107422 0.20192,0.02992 0.32465,0.06651 0.41016,0.09766 -0.0221,0.0744 -0.0494,0.186327 -0.21289,0.404297 l -0.008,0.01172 -0.008,0.01172 c -0.57502,0.912535 -1.52973,2.558794 -2.875,4.953125 -1.34118,2.374689 -2.42427,4.163932 -3.24023,5.357422 l -0.1211,0.175781 7.29493,12.572265 v 0.03906 0.148437 c 0,-0.03126 -10e-4,0.0093 -0.0117,0.0625 l -0.008,0.0332 v 0.0332 c 0,0.01246 5.2e-4,0.01048 0,0.01367 -0.0111,0.02218 -0.0203,0.04248 -0.0371,0.07617 l -0.008,0.01563 c -1.17034,-0.07025 -2.81329,-0.107421 -5.03906,-0.107421 -0.31277,0 -0.78739,0.0052 -1.42969,0.01758 -0.64024,0.01231 -1.11414,0.01953 -1.41797,0.01953 h -2.18164 v -0.275391 l -0.0469,-0.07813 C 102.1231,87.015952 101.69967,86.362668 101.04492,85.386719 100.39534,84.41848 99.924829,83.661295 99.638672,83.125 l -0.002,-0.002 -2.070313,-3.957031 -0.632812,0.15625 v 8.117187 c -0.05024,0.126202 -0.150257,0.238588 -0.417969,0.335938 -0.2802,0.10189 -0.712614,0.164062 -1.28125,0.164062 H 87.623 c -0.131774,-0.2236 -0.248344,-0.424608 -0.302735,-0.529297 V 63.527344 h 7.839844 0.308594 0.01367 c 0.147194,-0.01132 0.25485,-0.0099 0.296875,-0.0039 z m 85.498043,0 0.0234,0.0039 h 0.0234 c 0.0703,0 0.18161,0.0057 0.32422,0.01758 h 0.002 c 0.13998,0.01077 0.2427,0.03242 0.29688,0.05273 l 0.0176,0.0078 0.0195,0.0039 c 0.0604,0.01509 0.12615,0.04417 0.19922,0.08984 l 0.0195,0.01172 0.0215,0.0098 c 0.0562,0.02497 0.0843,0.05051 0.11133,0.09375 l 0.008,0.01172 0.008,0.01172 c 0.0405,0.054 0.0641,0.112069 0.0801,0.179687 v 8.164063 l 0.63672,0.15039 c 0.40832,-0.816644 0.9762,-1.989842 1.70312,-3.517578 l 0.002,-0.0039 c 0.7383,-1.525795 1.28153,-2.635338 1.625,-3.322266 l 0.002,-0.0039 0.82031,-1.759766 1.54102,-0.04883 c 0.23545,0 0.6013,0.01258 1.0918,0.03711 h 0.002 c 0.50813,0.02479 0.87891,0.03711 1.125,0.03711 h 1.40625 c 0.11264,0 0.25833,-0.0069 0.44726,-0.01953 0.19428,-0.01214 0.33396,-0.01758 0.4043,-0.01758 h 1.07227 c 0.0863,0 0.16903,-0.01845 0.26562,-0.03711 0.98665,2.03e-4 1.72528,0.03837 2.19141,0.107422 0.20192,0.02992 0.32465,0.06651 0.41015,0.09766 -0.0221,0.0744 -0.0494,0.186327 -0.21289,0.404297 l -0.008,0.01172 -0.008,0.01172 c -0.57503,0.912537 -1.52974,2.558793 -2.875,4.953125 -1.34119,2.374689 -2.42428,4.163932 -3.24024,5.357422 l -0.11914,0.175781 7.29297,12.572265 v 0.03906 0.148437 c 0,-0.03126 -0.001,0.0093 -0.0117,0.0625 l -0.008,0.0332 v 0.0332 c 0,0.01246 5.2e-4,0.01048 0,0.01367 -0.0111,0.02218 -0.0203,0.04248 -0.0371,0.07617 l -0.008,0.01563 c -1.17033,-0.07025 -2.81329,-0.107421 -5.03906,-0.107421 -0.31278,0 -0.78739,0.0052 -1.42969,0.01758 -0.64024,0.01231 -1.11414,0.01953 -1.41797,0.01953 h -2.1814 v -0.275391 l -0.0469,-0.07813 c -0.20698,-0.349282 -0.6304,-1.002566 -1.28515,-1.978515 -0.64983,-0.968614 -1.12012,-1.725387 -1.40625,-2.261719 v -0.002 l -2.07227,-3.957031 -0.63281,0.15625 v 8.117187 c -0.0502,0.12618 -0.14834,0.2386 -0.41602,0.335938 -0.2802,0.10189 -0.71456,0.164062 -1.2832,0.164062 h -7.61133 c -0.13177,-0.2236 -0.24834,-0.424608 -0.30273,-0.529297 V 63.527344 h 7.83984 0.31055 0.0117 c 0.1472,-0.01132 0.25486,-0.0099 0.29687,-0.0039 z m -39.64843,0.152344 h 4.88671 c 0.10277,0.01351 0.14644,0.03901 0.15625,0.04883 0.0102,0.01019 0.0215,0.01711 0.0215,0.0957 v 6.138672 c -0.006,0.02621 -0.0131,0.04989 -0.0254,0.07031 l -0.008,0.01172 -0.004,0.01172 c -0.0147,0.02932 -0.0266,0.03831 -0.0117,0.02344 0.0334,-0.03338 0.005,-0.0058 -0.0195,0.01367 -0.025,0.01947 -0.0629,0.04766 -0.11133,0.08398 l 0.0234,-0.01563 c -0.0539,0.03367 -0.0884,0.06702 -0.13086,0.09766 h -8.81445 v 2.964844 h 1.15039 c 0.72298,0 1.8158,-0.02483 3.28515,-0.07422 1.46551,-0.04926 2.59274,-0.07422 3.375,-0.07422 0.30135,0 0.43467,0.07344 0.45313,0.09375 0.0552,0.06074 0.0977,0.156945 0.0977,0.347656 0,0.01691 -0.008,0.119235 -0.0312,0.259765 -0.0259,0.155441 -0.041,0.262731 -0.041,0.369141 v 0.703125 c 0,0.0773 0.007,0.176901 0.0195,0.339844 v 0.002 c 0.0118,0.141065 0.0156,0.26277 0.0156,0.361328 v 0.517578 c 0,0.281477 0.0135,0.562398 0.0391,0.84375 0.024,0.264 0.0351,0.490499 0.0351,0.673828 v 0.408203 c -0.0171,0.03633 -0.0238,0.05038 -0.0351,0.07227 -0.47396,10e-4 -1.24136,0.02906 -2.34766,0.08984 -1.10617,0.06145 -1.98895,0.0918 -2.64453,0.0918 h -3.29687 v 3.039062 h 0.33593 c 0.0847,0 0.22999,0.0055 0.42383,0.01758 0.20079,0.01255 0.3522,0.01953 0.46484,0.01953 0.56241,0 1.38354,-0.01762 2.47071,-0.05469 1.08354,-0.03694 1.86554,-0.05664 2.33789,-0.05664 h 2.36914 c 0.60705,0 0.96223,0.123456 0.98828,0.140625 0.0174,0.02315 0.0318,0.04497 0.0449,0.06641 v 5.822265 c 0,0.216362 -0.0451,0.341033 -0.084,0.394532 -0.0154,0.02123 -0.0814,0.0741 -0.29883,0.08398 H 128.5447 l -0.34375,-0.298828 V 65.041016 c 0,-0.365302 0.007,-0.651299 0.0215,-0.853516 0.0132,-0.184505 0.0461,-0.28725 0.0312,-0.265625 0.0461,-0.06824 0.081,-0.09766 0.24023,-0.09766 h 0.44336 c 0.18333,0 0.31169,0.02317 0.30078,0.01953 l 0.0527,0.01758 h 1.01562 c 1.25108,0 3.13329,-0.03206 5.65039,-0.09375 2.52672,-0.06163 4.41948,-0.0918 5.67188,-0.0918 z m 66.4082,0 h 3.05273 c 0.14298,0.06312 0.16616,0.120605 0.15039,0.05078 l 0.0215,0.140625 0.0117,0.0332 c 0.44339,1.194694 0.8938,2.433646 1.34961,3.714843 0.45575,1.281051 0.99631,2.833795 1.625,4.658203 h 0.002 c 0.62906,1.813185 1.06692,3.064713 1.31445,3.757813 l 0.65039,-0.113281 v -2.71875 -0.01758 c 0.24577,-4.328746 0.37099,-7.409041 0.3711,-9.246094 0.007,-0.0049 0.0408,-0.0266 0.13086,-0.04297 0.2308,-0.04196 0.63972,-0.06836 1.19726,-0.06836 h 6.22266 c 0.003,0.0033 -0.0153,-0.01402 0,0.01563 0.0325,0.06321 0.0741,0.187393 0.10742,0.359375 l 0.002,0.0059 v 0.0059 c 0.0785,0.336444 0.12863,0.78604 0.14063,1.337891 0.0122,0.562627 0.0122,1.098957 0,1.611328 -0.0123,0.515414 -0.0321,1.043677 -0.0566,1.583985 v 0.0039 0.0039 c -0.0123,0.543247 -0.0176,0.879567 -0.0176,1.025391 -0.0247,0.502266 -0.0371,1.188739 -0.0371,2.072265 v 1.960938 c 0,0.866443 0.0124,2.051073 0.0371,3.55664 0.0247,1.503645 0.0371,2.612816 0.0371,3.324219 v 6.697266 c -0.015,0.121039 -0.0425,0.164652 -0.13477,0.220703 -0.0939,0.05699 -0.28234,0.109375 -0.5664,0.109375 h -10.28907 c 0.0864,0.01788 -0.0317,-0.02799 -0.15429,-0.251953 -0.12626,-0.230563 -0.27999,-0.594599 -0.44922,-1.078125 v -0.002 h -0.002 c -0.23521,-0.656106 -0.62892,-1.729224 -1.1836,-3.220703 v -0.002 c -0.542,-1.490524 -1.01037,-2.795787 -1.40429,-3.916015 -0.38831,-1.116372 -0.73859,-2.194804 -1.05469,-3.238281 v -0.05469 h -0.66992 v 0.111328 c -0.0371,0.818792 -0.0745,2.026854 -0.11133,3.636719 -0.037,1.601883 -0.0746,2.803168 -0.11133,3.599609 v 0.0078 3.78125 c 0,0.338286 -0.0564,0.549829 -0.082,0.597656 0.008,-0.01573 -0.14974,0.09776 -0.44727,0.175781 h -7.43164 L 199.64258,87.25 c 0.0605,-2.055712 0.11006,-5.179146 0.14648,-9.478516 0.037,-4.364438 0.0869,-7.593961 0.14844,-9.685547 v -0.0059 -3.945312 c 0.0439,-0.147104 0.0874,-0.246469 0.12305,-0.310547 0.84552,-1.95e-4 2.15107,-0.02505 3.93359,-0.07422 1.79896,-0.04928 3.14886,-0.07422 4.04297,-0.07422 z m 33.96094,0 h 4.88867 c 0.10276,0.01351 0.14643,0.03901 0.15625,0.04883 0.0102,0.01019 0.0215,0.01711 0.0215,0.0957 v 6.138672 c -0.006,0.02621 -0.0131,0.04989 -0.0254,0.07031 l -0.008,0.01172 -0.006,0.01172 c -0.0147,0.02932 -0.0246,0.03831 -0.01,0.02344 0.0334,-0.03338 0.005,-0.0058 -0.0195,0.01367 -0.025,0.01947 -0.0629,0.04766 -0.11132,0.08398 l 0.0234,-0.01563 c -0.0539,0.03367 -0.0884,0.06702 -0.13086,0.09766 h -8.81445 v 2.964844 h 1.15039 c 0.72298,0 1.81581,-0.02483 3.28516,-0.07422 1.4655,-0.04926 2.59274,-0.07422 3.375,-0.07422 0.30135,0 0.43467,0.07345 0.45312,0.09375 0.0552,0.06074 0.0977,0.156945 0.0977,0.347656 0,0.01691 -0.008,0.119235 -0.0312,0.259765 -0.0259,0.155441 -0.043,0.262731 -0.043,0.369141 v 0.703125 c 0,0.0773 0.007,0.176901 0.0195,0.339844 v 0.002 h 0.002 c 0.0118,0.141065 0.0156,0.26277 0.0156,0.361328 v 0.517578 c 0,0.281477 0.0135,0.562398 0.0391,0.84375 0.024,0.264 0.0352,0.490499 0.0352,0.673828 v 0.404297 c -0.0181,0.03873 -0.0232,0.05318 -0.0352,0.07617 -0.47395,10e-4 -1.24136,0.02906 -2.34765,0.08984 -1.10618,0.06145 -1.99091,0.0918 -2.64649,0.0918 h -3.29492 v 3.039062 h 0.33594 c 0.0847,0 0.22999,0.0055 0.42382,0.01758 0.20079,0.01255 0.3522,0.01953 0.46485,0.01953 0.5624,0 1.38353,-0.01762 2.4707,-0.05469 1.08354,-0.03694 1.86555,-0.05664 2.33789,-0.05664 h 2.36914 c 0.60706,0 0.96225,0.123465 0.98828,0.140625 0.0174,0.02316 0.0318,0.04497 0.0449,0.06641 v 5.822265 c 0,0.216359 -0.0451,0.341033 -0.084,0.394532 -0.0154,0.02122 -0.0814,0.0741 -0.29883,0.08398 h -18.17382 l -0.34375,-0.298828 V 65.041016 c 0,-0.365302 0.007,-0.651299 0.0215,-0.853516 0.0132,-0.184505 0.0461,-0.28725 0.0312,-0.265625 0.0461,-0.06824 0.081,-0.09766 0.24023,-0.09766 h 0.44336 c 0.18333,0 0.31169,0.02317 0.30078,0.01953 l 0.0527,0.01758 h 1.01562 c 1.25108,0 3.13329,-0.03206 5.65039,-0.09375 2.52673,-0.06163 4.41754,-0.0918 5.66993,-0.0918 z m 60.60156,0 h 4.88672 c 0.10276,0.01351 0.14643,0.03901 0.15625,0.04883 0.0102,0.01019 0.0215,0.01711 0.0215,0.0957 v 6.138672 c -0.006,0.02621 -0.0131,0.04989 -0.0254,0.07031 l -0.006,0.01172 -0.006,0.01172 c -0.0147,0.02932 -0.0266,0.03831 -0.0117,0.02344 0.0334,-0.03338 0.005,-0.0058 -0.0195,0.01367 -0.025,0.01947 -0.0629,0.04766 -0.11133,0.08398 l 0.0234,-0.01563 c -0.0544,0.03399 -0.09,0.06671 -0.13281,0.09766 h -8.81055 v 2.964844 h 1.14844 c 0.72298,0 1.81581,-0.02483 3.28516,-0.07422 1.4655,-0.04926 2.59273,-0.07422 3.375,-0.07422 0.30135,0 0.43467,0.07345 0.45312,0.09375 0.0552,0.06074 0.0977,0.156945 0.0977,0.347656 0,0.01691 -0.008,0.119235 -0.0312,0.259765 -0.0259,0.155441 -0.041,0.262731 -0.041,0.369141 v 0.703125 c 0,0.0773 0.007,0.176901 0.0195,0.339844 v 0.002 c 0.0118,0.141065 0.0176,0.26277 0.0176,0.361328 v 0.517578 c 0,0.281477 0.0115,0.562398 0.0371,0.84375 0.024,0.264 0.0352,0.490499 0.0352,0.673828 v 0.408203 c -0.0171,0.03633 -0.0238,0.05039 -0.0352,0.07227 -0.47395,10e-4 -1.24136,0.02906 -2.34766,0.08984 -1.10617,0.06145 -1.98895,0.0918 -2.64453,0.0918 h -3.29687 v 3.039062 h 0.33594 c 0.0847,0 0.22999,0.0055 0.42382,0.01758 0.20079,0.01255 0.3522,0.01953 0.46485,0.01953 0.5624,0 1.38353,-0.01762 2.4707,-0.05469 1.08354,-0.03694 1.86555,-0.05664 2.33789,-0.05664 h 2.36914 c 0.60706,0 0.96225,0.123465 0.98828,0.140625 0.0174,0.02316 0.0318,0.04497 0.0449,0.06641 v 5.822265 c 0,0.216359 -0.0451,0.341033 -0.084,0.394532 -0.0154,0.02122 -0.0814,0.0741 -0.29883,0.08398 h -18.17383 l -0.34375,-0.298828 V 65.041016 c 0,-0.365302 0.007,-0.651299 0.0215,-0.853516 0.0132,-0.184505 0.0461,-0.28725 0.0312,-0.265625 0.0461,-0.06824 0.081,-0.09766 0.24023,-0.09766 h 0.44336 c 0.18333,0 0.31169,0.02317 0.30078,0.01953 l 0.0527,0.01758 h 1.01562 c 1.25108,0 3.13329,-0.03206 5.65039,-0.09375 2.52673,-0.06163 4.41949,-0.0918 5.67188,-0.0918 z m -187.99414,0.148438 h 9.52148 V 87.51758 c -0.0517,0.206597 -0.10337,0.343357 -0.125,0.384766 H 114.2168 V 64.029297 c 0.0178,-0.01166 0.0329,-0.02449 0.084,-0.04492 l 0.01,-0.0039 0.008,-0.0039 c 0.0969,-0.04523 0.17758,-0.08411 0.24414,-0.121093 0.0157,-0.0087 0.0288,-0.02337 0.043,-0.03125 z m 135.70312,0 h 9.51953 v 23.699218 c -0.051,0.201497 -0.10175,0.338126 -0.12304,0.378907 h -9.78711 V 64.029297 c 0.0177,-0.01164 0.0346,-0.02439 0.0859,-0.04492 l 0.008,-0.0039 0.01,-0.0039 c 0.0969,-0.04523 0.17563,-0.08411 0.24219,-0.121093 0.016,-0.0089 0.0305,-0.02319 0.0449,-0.03125 z m 15.32032,0.06641 -0.0625,0.0059 h 13.24414 c 0.72292,0 1.44617,0.09481 2.17187,0.285157 l 0.002,0.002 h 0.002 c 0.71743,0.176418 1.42051,0.471027 2.10937,0.886718 l 0.002,0.002 0.004,0.002 c 0.6972,0.401778 1.30192,0.895295 1.82031,1.484375 l 0.002,0.002 0.002,0.0039 c 0.52064,0.566912 0.94311,1.283524 1.26367,2.162109 l 0.002,0.002 v 0.002 c 0.32954,0.870926 0.49609,1.834121 0.49609,2.896484 0,1.407789 -0.2969,2.642947 -0.88477,3.724609 -0.58718,1.067874 -1.477,2.088034 -2.66992,3.058594 -1.45988,0.752728 -3.22308,1.196082 -5.30469,1.316406 h -0.60546 l -0.0312,0.0059 c -0.4722,0.09444 -0.94315,0.142578 -1.41407,0.142578 h -1.48047 c -0.11128,0 -0.22657,0.01758 -0.33593,0.07227 l -0.18555,0.0918 v 0.208985 c 0,3.196573 0.0494,5.593773 0.14648,7.257812 -0.0409,0.147129 -0.0876,0.210699 -0.19726,0.25586 l -0.004,0.002 h -0.002 c -0.10323,0.04516 -0.42863,0.101562 -0.90234,0.101562 h -8.55274 l -0.3789,-11.984375 v -0.0078 -0.002 c 8e-5,-0.845552 0.0126,-1.799968 0.0371,-2.867188 0.0246,-1.071105 0.0549,-2.037945 0.0918,-2.898437 0.0371,-0.864992 0.0691,-1.845775 0.0937,-2.94336 v -0.0039 c 0.037,-1.098961 0.0547,-2.100241 0.0547,-3.003906 0,-0.08697 0.0172,-0.134407 0.0234,-0.146485 0.006,-0.01208 -0.008,1.6e-5 0.002,-0.0039 l 0.006,-0.002 0.006,-0.002 c 0.10705,-0.04588 0.25703,-0.06942 0.46289,-0.04883 h 0.002 c 0.29827,0.02841 0.61961,0.0059 0.96485,-0.06055 z m -116.7461,0.0059 h 20.16016 c 0.21576,0 0.36836,0.01224 0.38867,0.01563 l 0.0273,0.0039 h 0.0274 c -0.0379,0 -0.01,-0.0069 0.0566,0.04297 l 0.0117,0.0098 0.0117,0.0078 c 0.007,0.0044 0.0192,1.17e-4 0.0332,0.08398 0.0192,0.115177 0.0312,0.313082 0.0312,0.574219 0,0.129339 -0.01,0.297501 -0.0332,0.498046 -0.025,0.21268 -0.041,0.32247 -0.041,0.427735 v 0.05273 l 0.0742,0.220703 c -4.7e-4,0.434234 -0.006,0.85836 -0.0176,1.269532 v 0.0059 0.0039 c 0,0.428427 -0.006,0.788935 -0.0176,1.078125 -0.0123,0.294808 -0.0249,0.551569 -0.0371,0.771485 -0.0122,0.219227 -0.0257,0.389402 -0.0371,0.503906 v 0.01563 0.160156 c -0.0374,0.09956 -0.0715,0.19292 -0.0937,0.259766 -0.0136,0.04098 -0.0261,0.07549 -0.0351,0.109375 -0.009,0.03389 -0.0195,0.05094 -0.0195,0.134765 v 0.167969 c -0.90823,1.042035 -2.18283,2.47989 -3.87305,4.363281 -1.71447,1.924146 -2.91167,3.275632 -3.5918,4.054688 l -0.006,0.0059 -0.81054,1.03125 -1.39844,1.515625 h 10.01562 c 0.0288,0 0.0253,9.24e-4 0.043,0.01563 0.0176,0.0147 0.0529,0.05702 0.0879,0.144531 0.07,0.175013 0.125,0.513464 0.125,0.984375 v 4.810547 c 0,0.321488 -0.0756,0.463472 -0.12109,0.501953 -0.0631,0.05343 -0.25113,0.123047 -0.58008,0.123047 h -20.5293 c -0.0558,-0.06209 -0.1126,-0.12491 -0.20703,-0.242187 l -0.002,-0.0039 c -0.12007,-0.17667 -0.16747,-0.317781 -0.16211,-0.275391 v -1.103516 c 0,-0.08467 0.007,-0.262579 0.0195,-0.519531 0.0125,-0.262008 0.0176,-0.469645 0.0176,-0.626953 v -0.962891 c 0,-0.797283 0.0171,-1.407321 0.0469,-1.824218 0.0149,-0.208449 0.0336,-0.368957 0.0527,-0.470704 0.0191,-0.101746 0.086,-0.154346 -0.0117,-0.05664 l 0.008,-0.0078 0.008,-0.0098 c 1.68293,-1.942803 4.1991,-5.003396 7.55468,-9.185547 l -0.006,0.0098 2.00391,-2.335937 -0.66211,-0.04883 c -0.37714,-0.02794 -1.26058,-0.02661 -2.72851,-0.002 h -0.002 c -1.46549,0.01231 -2.3982,0.01953 -2.78906,0.01953 h -0.48047 c -0.14582,0 -0.35116,0.0071 -0.625,0.01953 -0.26877,0.01222 -0.47022,0.01758 -0.5957,0.01758 h -1.06055 c -0.16477,-0.09247 -0.23047,-0.159627 -0.23047,-0.292968 z m 124.72071,4.804688 -0.0996,0.09961 c 0.0272,-0.02722 -0.0436,0.03819 -0.12891,0.111328 -0.0893,0.07656 -0.15296,0.133431 -0.20313,0.183594 l -0.0996,0.09766 v 2.064453 c -0.14456,1.166617 -0.22071,2.106749 -0.22071,2.810547 v 0.472657 l 0.0977,0.09766 c 0.0624,0.0624 0.0668,0.05496 0.0859,0.06641 0.0191,0.01145 0.0397,0.02095 0.0625,0.0332 0.0455,0.0245 0.10402,0.05592 0.17968,0.09375 l 0.0137,0.0059 0.0156,0.0059 c 0.0732,0.02814 0.12599,0.05357 0.14258,0.0625 0.008,0.0045 0.007,0.0057 -0.0137,-0.01172 -7e-4,-5.93e-4 -0.003,-0.0072 -0.004,-0.0078 0.07,0.06694 0.14686,0.146484 0.23633,0.146484 h 0.33594 v -0.07813 c 1.07465,-0.02521 2.03327,-0.246784 2.80664,-0.753906 0.85292,-0.551448 1.29882,-1.456822 1.29882,-2.574219 0,-0.506887 -0.0864,-0.959245 -0.27343,-1.347656 -0.17666,-0.3669 -0.40514,-0.663234 -0.68946,-0.875 -0.27636,-0.227666 -0.63178,-0.379292 -1.05859,-0.472656 -0.3922,-0.100488 -0.75924,-0.165224 -1.09961,-0.191407 -0.33376,-0.02568 -0.74722,-0.03906 -1.24609,-0.03906 z m 0.25976,0.675781 c 0.42225,0.0022 0.79786,0.01 1.07422,0.03125 0.29669,0.02282 0.62923,0.08111 0.99609,0.175781 l 0.006,0.002 0.006,0.002 c 0.35858,0.07844 0.61468,0.197131 0.78125,0.335937 l 0.008,0.0059 0.008,0.0059 c 0.18079,0.133216 0.3478,0.338948 0.49023,0.634765 0.13362,0.277523 0.20703,0.62629 0.20703,1.056641 0,0.953332 -0.31947,1.576451 -0.99414,2.011719 l -0.002,0.002 c -0.68968,0.452245 -1.54257,0.683594 -2.58984,0.683594 -0.0273,0 -0.0344,-8.26e-4 -0.0508,-0.002 l -0.27929,-0.279297 c 0.001,-0.665255 0.0731,-1.579008 0.21875,-2.744141 l 0.002,-0.02148 v -1.794922 c 0.0252,-0.0225 0.0342,-0.03126 0.0684,-0.06055 0.0267,-0.02292 0.0328,-0.02976 0.0508,-0.04492 z"
           id="path6" />
      </g>
    </g>
  </g>
</svg>
