<?xml version="1.0" encoding="UTF-8" standalone="no"?>
<!-- Created with Inkscape (http://www.inkscape.org/) -->

<svg
   width="286.32993mm"
   height="119.80817mm"
   viewBox="0 0 286.32993 119.80817"
   version="1.1"
   id="svg1"
   xml:space="preserve"
   xmlns="http://www.w3.org/2000/svg"
   xmlns:svg="http://www.w3.org/2000/svg"><defs
     id="defs1" /><g
     id="layer1"
     transform="translate(-5.5385548,-3.2168693)"><g
       id="g19"
       transform="matrix(1.108547,0,0,0.98724945,-8.4752778,-0.21242686)"><path
         d="m 436.85059,-66.85234 q 12.84375,0 23.0625,1.6875 10.3125,1.6875 19.6875,6 9.46875,4.3125 15.75,11.25 6.28125,6.9375 9.9375,18 3.75,11.0625 3.75,25.6874998 0,10.6875 -2.53125,19.9687502 -2.53125,9.1875 -6.9375,15.84375 -4.40625,6.65625 -10.125,11.90625 -5.625,5.15625 -12.28125,8.4375 -6.65625,3.28125 -13.3125,5.0625 -6.65625,1.78125 -13.3125,2.15625 h -64.3125 v -124.5 q 0.28125,0 1.03125,0.09375 0.75,0.09375 1.03125,0.09375 4.03125,0 12.1875,-0.84375 8.25,-0.84375 12.375,-0.84375 z m 1.125,96.75 q 4.78125,0 8.4375,-1.5 3.65625,-1.59375 5.8125,-4.5 2.25,-2.90625 3.65625,-6.09375 1.5,-3.1875 2.15625,-7.5 0.65625,-4.3125002 0.84375,-7.5000002 0.28125,-3.28125005 0.28125,-7.40625 V -11.35234 q -0.0937,-0.65625 -0.5625,-6.375 -0.46875,-5.71875 -2.0625,-9.75 -1.5,-2.90625 -3.375,-4.96875 -1.78125,-2.15625 -3.5625,-3.28125 -1.78125,-1.21875 -4.21875,-1.78125 -2.34375,-0.65625 -4.3125,-0.84375 -1.96875,-0.1875 -4.78125,-0.1875 v 2.0625 h -2.8125 v 66.375 z m 81.9375,29.8125 v -123.1875 q 0.0937,-0.75 1.5,-1.3125 1.40625,-0.65625 1.6875,-0.9375 h 50.4375 v 122.0625 q -0.46875,1.96875 -0.9375,2.71875 -0.375,0.65625 -1.3125,0.65625 z m 70.875,-117.5625 q 0,-5.625 0.46875,-6.5625 0.84375,-1.3125 2.71875,-1.3125 h 2.25 q 1.5,0 2.0625,0.1875 h 4.875 q 9.46875,0 28.59375,-0.46875 19.21875,-0.46875 28.78125,-0.46875 h 24.9375 q 2.4375,0.28125 2.4375,2.4375 v 31.3125 q -0.0937,0.5625 -0.375,1.03125 -0.1875,0.375 -0.375,0.5625 -0.0937,0.09375 -0.84375,0.65625 -0.75,0.46875 -1.03125,0.75 h -43.5 v 11.625 h 4.125 q 5.4375,0 16.59375,-0.375 11.15625,-0.375 17.15625,-0.375 2.625,0 3.5625,1.03125 0.9375,1.03125 0.9375,2.90625 0,0.46875 -0.1875,1.59375 -0.1875,1.125 -0.1875,1.59375 v 3.5624998 q 0,0.375 0.0937,1.59375 0.0937,1.125 0.0937,1.96875 v 2.625 q 0,2.06249995 0.1875,4.125 0.1875,2.0625 0.1875,3.5625 v 2.4375 q -0.46875,1.125 -0.75,1.5 -0.28125,0.3750002 -0.9375,0.3750002 V 9.8351598 q -3.46875,0 -12,0.4687502 -8.4375,0.46875 -13.5,0.46875 h -15 v 12 q 0.75,0 2.25,0.09375 1.5,0.09375 2.25,0.09375 4.21875,0 12.46875,-0.28125 8.25,-0.28125 11.90625,-0.28125 h 12 q 4.875,0 6.1875,1.125 0.46875,0.5625 0.75,1.125 v 30 q 0,1.96875 -0.75,3 -0.75,1.03125 -2.8125,1.125 h -92.8125 l -2.8125,-2.4375 z"
         id="text17"
         style="font-size:192px;line-height:0;font-family:'Bowlby One SC';-inkscape-font-specification:'Bowlby One SC';text-align:center;text-anchor:middle;white-space:pre;opacity:0.6;fill:#f4eed7;stroke:#090909;stroke-width:3.40157"
         transform="matrix(0.84093041,0,0,0.651328,-310.71698,48.124156)"
         aria-label="die" /><path
         style="font-size:47.7102px;line-height:0;font-family:'Bowlby One SC';-inkscape-font-specification:'Bowlby One SC';text-align:center;text-anchor:middle;opacity:0.6;fill:#aa0000;stroke:#f4eed7;stroke-width:0.845259"
         d="m 14.793532,114.61738 q -0.419328,-0.69888 -0.559104,-0.97844 V 83.028004 h 10.296831 q 0.06989,0 0.372736,0 0.302848,-0.0233 0.46592,0 0.163072,0 0.442624,0.0233 0.302848,0.0233 0.489216,0.09318 0.186368,0.04659 0.372736,0.163072 0.209664,0.09318 0.326144,0.279552 0.139776,0.186368 0.186368,0.419328 v 10.343423 q 0.768767,-1.537536 2.143231,-4.42624 1.39776,-2.888703 2.050048,-4.193279 l 1.141504,-2.44608 2.21312,-0.06989 q 0.465919,0 1.397759,0.04659 0.955136,0.04659 1.39776,0.04659 h 1.770496 q 0.186368,0 0.535808,-0.0233 0.372736,-0.0233 0.535808,-0.0233 h 1.351168 q 0.09318,0 0.326143,-0.04659 3.773952,0 3.773952,0.559104 0,0.326144 -0.419328,0.885248 -1.071616,1.700608 -3.610879,6.220031 -2.539264,4.496128 -4.100096,6.779135 l 9.108735,15.701502 q 0,0.0233 0,0.16307 0,0.13978 0,0.18637 0,0.0466 -0.0233,0.16307 0,0.0932 -0.0233,0.16308 -0.0233,0.0466 -0.06989,0.13977 -0.0233,0.0699 -0.09318,0.13978 -0.04659,0.0466 -0.11648,0.11648 -2.189824,-0.13978 -6.522879,-0.13978 -0.5824,0 -1.793792,0.0233 -1.211392,0.0233 -1.793792,0.0233 H 33.19737 v -0.65228 q -0.372736,-0.629 -1.607424,-2.46938 -1.234688,-1.84038 -1.793792,-2.8887 l -2.609151,-4.98535 v 10.34343 q -0.326144,0.93184 -2.56256,0.93184 z m 33.313274,-0.0466 V 83.959844 q 0.0233,-0.186368 0.372736,-0.326144 0.34944,-0.163072 0.419328,-0.23296 h 12.533246 v 30.33139 q -0.11648,0.48921 -0.23296,0.67558 -0.09318,0.16307 -0.326144,0.16307 z M 65.71858,85.357604 q 0,-1.39776 0.11648,-1.63072 0.209664,-0.326144 0.675584,-0.326144 h 0.559104 q 0.372736,0 0.512512,0.04659 h 1.211391 q 2.352896,0 7.105279,-0.11648 4.77568,-0.11648 7.151871,-0.11648 h 6.196735 q 0.605696,0.06989 0.605696,0.605696 v 7.780863 q -0.0233,0.139776 -0.09318,0.256256 -0.04659,0.09318 -0.09318,0.139776 -0.0233,0.0233 -0.209664,0.163072 -0.186368,0.11648 -0.256256,0.186368 h -10.80935 v 2.888704 h 1.025024 q 1.351168,0 4.123391,-0.09318 2.772224,-0.09318 4.263168,-0.09318 0.652288,0 0.885248,0.256256 0.23296,0.256256 0.23296,0.722176 0,0.11648 -0.04659,0.396031 -0.04659,0.279552 -0.04659,0.396032 v 0.885248 q 0,0.09318 0.0233,0.396032 0.0233,0.279552 0.0233,0.489216 v 0.652288 q 0,0.512512 0.04659,1.025026 0.04659,0.51251 0.04659,0.88525 v 0.6057 q -0.116479,0.27955 -0.186367,0.37273 -0.06989,0.0932 -0.23296,0.0932 v -0.0466 q -0.861952,0 -2.981888,0.11648 -2.09664,0.11648 -3.354624,0.11648 h -3.727359 v 2.98189 q 0.186368,0 0.559104,0.0233 0.372736,0.0233 0.559104,0.0233 1.04832,0 3.098367,-0.0699 2.050048,-0.0699 2.958592,-0.0699 h 2.981888 q 1.211391,0 1.537535,0.27955 0.11648,0.13978 0.186368,0.27955 v 7.45472 q 0,0.48922 -0.186368,0.74547 -0.186368,0.25626 -0.69888,0.27955 H 66.41746 l -0.69888,-0.60569 z m 25.392632,28.141566 v -1.44435 q 0,-0.18637 0.0233,-0.67559 0.0233,-0.48921 0.0233,-0.76877 v -1.21139 q 0,-3.02848 0.23296,-3.26144 3.168255,-3.65747 9.504768,-11.554811 l 1.98016,-2.306304 q -0.62899,-0.04659 -3.401217,0 -2.772224,0.0233 -3.517696,0.0233 h -0.605696 q -0.256256,0 -0.768768,0.0233 -0.512511,0.0233 -0.768767,0.0233 H 92.322604 Q 91.7635,92.066851 91.7635,91.554339 v -8.060415 h 25.81196 q 0.41933,0 0.55911,0.0233 0.13977,0 0.32614,0.139776 0.18637,0.11648 0.23296,0.396032 0.0466,0.279552 0.0466,0.792064 0,0.279552 -0.0466,0.675584 -0.0466,0.396032 -0.0466,0.489216 l 0.0932,0.279552 q 0,0.861952 -0.0233,1.677312 0,0.81536 -0.0233,1.374463 -0.0233,0.559104 -0.0466,0.978432 -0.0233,0.419328 -0.0466,0.652288 0,0.23296 0,0.256256 -0.18637,0.489216 -0.18637,0.559104 v 0.372736 q -1.7239,1.98016 -4.98534,5.614335 -3.23815,3.634176 -4.51943,5.101816 l -1.02502,1.30458 -1.11821,1.21139 h 11.648 q 0.74547,0 0.74547,1.86368 v 6.05696 q 0,0.69888 -0.30285,0.95514 -0.30284,0.25625 -1.00172,0.25625 H 91.810092 q -0.139776,-0.13977 -0.419328,-0.48921 -0.256256,-0.37274 -0.279552,-0.53581 z m 31.356418,1.11821 q -0.41933,-0.69888 -0.55911,-0.97844 V 83.028004 h 10.29683 q 0.0699,0 0.37274,0 0.30285,-0.0233 0.46592,0 0.16307,0 0.44262,0.0233 0.30285,0.0233 0.48922,0.09318 0.18637,0.04659 0.37274,0.163072 0.20966,0.09318 0.32614,0.279552 0.13978,0.186368 0.18637,0.419328 v 10.343423 q 0.76877,-1.537536 2.14323,-4.42624 1.39776,-2.888703 2.05005,-4.193279 l 1.1415,-2.44608 2.21312,-0.06989 q 0.46592,0 1.39776,0.04659 0.95514,0.04659 1.39776,0.04659 h 1.7705 q 0.18636,0 0.5358,-0.0233 0.37274,-0.0233 0.53581,-0.0233 h 1.35117 q 0.0932,0 0.32614,-0.04659 3.77396,0 3.77396,0.559104 0,0.326144 -0.41933,0.885248 -1.07162,1.700608 -3.61088,6.220031 -2.53927,4.496128 -4.1001,6.779135 l 9.10874,15.701502 q 0,0.0233 0,0.16307 0,0.13978 0,0.18637 0,0.0466 -0.0233,0.16307 0,0.0932 -0.0233,0.16308 -0.0233,0.0466 -0.0699,0.13977 -0.0233,0.0699 -0.0932,0.13978 -0.0466,0.0466 -0.11648,0.11648 -2.18982,-0.13978 -6.52288,-0.13978 -0.5824,0 -1.79379,0.0233 -1.21139,0.0233 -1.79379,0.0233 h -3.16826 v -0.65228 q -0.37273,-0.629 -1.60742,-2.46938 -1.23469,-1.84038 -1.79379,-2.8887 l -2.60915,-4.98535 v 10.34343 q -0.32615,0.93184 -2.56256,0.93184 z m 64.62309,-31.21664 q 0.27955,0.09318 0.41932,0.81536 0.16308,0.69888 0.18637,1.770496 0.0233,1.071616 0,2.050048 -0.0233,0.978432 -0.0699,2.003455 -0.0233,1.025024 -0.0233,1.28128 -0.0466,0.93184 -0.0466,2.609152 v 2.469375 q 0,1.63072 0.0466,4.472834 0.0466,2.84211 0.0466,4.19328 v 8.47974 q -0.0932,0.79206 -1.30458,0.79206 h -13.04575 q -0.41933,-0.0932 -1.07162,-1.95686 -0.44262,-1.23469 -1.49094,-4.0535 -1.02503,-2.81882 -1.7705,-4.93875 -0.74547,-2.14324 -1.35117,-4.146692 v -0.139776 0.139776 q -0.0699,1.537532 -0.13977,4.589312 -0.0699,3.02848 -0.13978,4.54272 v 4.75238 q 0,0.69888 -0.16307,0.97843 -0.16307,0.25626 -0.86195,0.41933 h -9.59795 l -1.02503,-1.02502 q 0.11648,-3.86714 0.18637,-12.11392 0.0699,-8.246783 0.18637,-12.207102 v -5.031936 q 0.23296,-0.838656 0.5591,-0.838656 v 0.09318 q 1.58413,0 4.96205,-0.09318 3.40122,-0.09318 5.10182,-0.09318 h 3.91373 q 0.0233,0 0.0699,0.0233 0.41933,0.163072 0.46592,0.372736 l 0.0233,0.163072 q 0.83865,2.259712 1.7006,4.682496 0.86195,2.422783 2.05005,5.870591 1.1881,3.424511 1.65402,4.729087 v -3.447807 q 0.46592,-8.200191 0.46592,-11.647999 0,-0.372736 0.51251,-0.46592 0.51251,-0.09318 1.58413,-0.09318 z m 5.03194,1.956864 q 0,-1.39776 0.11648,-1.63072 0.20966,-0.326144 0.67558,-0.326144 h 0.55911 q 0.37273,0 0.51251,0.04659 h 1.21139 q 2.3529,0 7.10528,-0.11648 4.77568,-0.11648 7.15187,-0.11648 h 6.19674 q 0.60569,0.06989 0.60569,0.605696 v 7.780863 q -0.0233,0.139776 -0.0932,0.256256 -0.0466,0.09318 -0.0932,0.139776 -0.0233,0.0233 -0.20966,0.163072 -0.18637,0.11648 -0.25626,0.186368 h -10.80934 v 2.888704 h 1.02503 q 1.35116,0 4.12339,-0.09318 2.77222,-0.09318 4.26316,-0.09318 0.65229,0 0.88525,0.256256 0.23296,0.256256 0.23296,0.722176 0,0.11648 -0.0466,0.396031 -0.0466,0.279552 -0.0466,0.396032 v 0.885248 q 0,0.09318 0.0233,0.396032 0.0233,0.279552 0.0233,0.489216 v 0.652288 q 0,0.512512 0.0466,1.025026 0.0466,0.51251 0.0466,0.88525 v 0.6057 q -0.11648,0.27955 -0.18636,0.37273 -0.0699,0.0932 -0.23296,0.0932 v -0.0466 q -0.86196,0 -2.98189,0.11648 -2.09664,0.11648 -3.35463,0.11648 h -3.72735 v 2.98189 q 0.18636,0 0.5591,0.0233 0.37274,0.0233 0.5591,0.0233 1.04832,0 3.09837,-0.0699 2.05005,-0.0699 2.95859,-0.0699 h 2.98189 q 1.21139,0 1.53754,0.27955 0.11648,0.13978 0.18636,0.27955 v 7.45472 q 0,0.48922 -0.18636,0.74547 -0.18637,0.25626 -0.69888,0.27955 h -23.06304 l -0.69888,-0.60569 z m 26.88358,29.213176 V 83.959844 q 0.0233,-0.186368 0.37273,-0.326144 0.34944,-0.163072 0.41933,-0.23296 h 12.53325 v 30.33139 q -0.11648,0.48921 -0.23296,0.67558 -0.0932,0.16307 -0.32614,0.16307 z m 18.07769,-0.0466 -0.48922,-15.515132 q 0,-1.607424 0.0466,-3.634175 0.0466,-2.026752 0.11648,-3.657472 0.0699,-1.63072 0.11648,-3.704063 0.0699,-2.073344 0.0699,-3.773952 0,-0.46592 0.30285,-0.5824 0.32614,-0.139776 0.79206,-0.09318 0.48922,0.04659 1.09491,-0.06989 h 16.67994 q 1.42105,0 2.84211,0.372736 1.42105,0.34944 2.77222,1.1648 1.37447,0.792064 2.39949,1.956864 1.04832,1.141504 1.67731,2.865407 0.65229,1.723904 0.65229,3.797248 0,2.748927 -1.1648,4.892159 -1.1648,2.11993 -3.4944,4.00691 -2.86541,1.49094 -6.89562,1.7239 h -0.74547 q -0.93184,0.18637 -1.86368,0.18637 h -1.86368 q -0.13977,0 -0.23296,0.0466 0,6.10355 0.18637,9.22522 -0.11648,0.46592 -0.51251,0.62899 -0.37274,0.16307 -1.30458,0.16307 z m 11.64799,-17.79814 v 0.419328 q 0.0233,0.0233 0.30285,0.163072 0.30285,0.11648 0.30285,0.163072 v 0.04659 q -0.0466,0 -0.0466,-0.09318 0.0466,0.04659 0.27955,0.04659 2.07334,0 3.4944,-0.93184 1.44435,-0.931839 1.44435,-2.888703 0,-0.885248 -0.30285,-1.51424 -0.30285,-0.628992 -0.74547,-0.955136 -0.41933,-0.34944 -1.1648,-0.512512 -0.72217,-0.186368 -1.32787,-0.23296 -0.6057,-0.04659 -1.53754,-0.04659 -0.0233,0.0233 -0.18636,0.163072 -0.16308,0.139776 -0.23296,0.209664 v 2.422784 q -0.27956,2.236416 -0.27956,3.540991 z m 19.70843,-11.368446 q 0,-1.39776 0.11648,-1.63072 0.20966,-0.326144 0.67558,-0.326144 h 0.55911 q 0.37273,0 0.51251,0.04659 h 1.21139 q 2.35289,0 7.10528,-0.11648 4.77568,-0.11648 7.15187,-0.11648 h 6.19673 q 0.6057,0.06989 0.6057,0.605696 v 7.780863 q -0.0233,0.139776 -0.0932,0.256256 -0.0466,0.09318 -0.0932,0.139776 -0.0233,0.0233 -0.20966,0.163072 -0.18637,0.11648 -0.25626,0.186368 h -10.80934 v 2.888704 h 1.02502 q 1.35117,0 4.12339,-0.09318 2.77223,-0.09318 4.26317,-0.09318 0.65229,0 0.88525,0.256256 0.23296,0.256256 0.23296,0.722176 0,0.11648 -0.0466,0.396031 -0.0466,0.279552 -0.0466,0.396032 v 0.885248 q 0,0.09318 0.0233,0.396032 0.0233,0.279552 0.0233,0.489216 v 0.652288 q 0,0.512512 0.0466,1.025026 0.0466,0.51251 0.0466,0.88525 v 0.6057 q -0.11648,0.27955 -0.18637,0.37273 -0.0699,0.0932 -0.23296,0.0932 v -0.0466 q -0.86195,0 -2.98188,0.11648 -2.09664,0.11648 -3.35463,0.11648 h -3.72736 v 2.98189 q 0.18637,0 0.55911,0.0233 0.37273,0.0233 0.5591,0.0233 1.04832,0 3.09837,-0.0699 2.05005,-0.0699 2.95859,-0.0699 h 2.98189 q 1.21139,0 1.53753,0.27955 0.11648,0.13978 0.18637,0.27955 v 7.45472 q 0,0.48922 -0.18637,0.74547 -0.18636,0.25626 -0.69888,0.27955 h -23.06303 l -0.69888,-0.60569 z"
         id="text19"
         transform="scale(0.92158011,1.0850929)"
         aria-label="kiezkneipe" /></g></g></svg>
